<?xml version="1.0" encoding="UTF-8"?>
<!DOCTYPE svg PUBLIC "-//W3C//DTD SVG 1.1//EN" "http://www.w3.org/Graphics/SVG/1.1/DTD/svg11.dtd">
<svg xmlns="http://www.w3.org/2000/svg" version="1.1" width="512px" height="512px" style="shape-rendering:geometricPrecision; text-rendering:geometricPrecision; image-rendering:optimizeQuality; fill-rule:evenodd; clip-rule:evenodd" xmlns:xlink="http://www.w3.org/1999/xlink">
<g><path style="opacity:0.945" fill="#ffb133" d="M 63.5,4.5 C 64.4959,4.41423 65.3292,4.74756 66,5.5C 68.8673,12.0728 72.3673,18.2395 76.5,24C 82.6995,27.2626 88.6995,30.7626 94.5,34.5C 88.6995,38.2374 82.6995,41.7374 76.5,45C 72.3604,51.4524 68.3604,57.9524 64.5,64.5C 60.7626,58.6995 57.2626,52.6995 54,46.5C 47.5476,42.3604 41.0476,38.3604 34.5,34.5C 41.0476,30.6396 47.5476,26.6396 54,22.5C 57.4342,16.6313 60.6008,10.6313 63.5,4.5 Z"/></g>
<g><path style="opacity:0.979" fill="#389348" d="M 337.5,65.5 C 331.835,73.351 325.502,80.851 318.5,88C 315.309,90.4262 311.975,92.5928 308.5,94.5C 297.277,98.9084 286.277,98.4084 275.5,93C 265.504,83.8063 262.671,72.6397 267,59.5C 276.243,40.7961 291.077,33.1295 311.5,36.5C 310.5,36.5 309.5,36.5 308.5,36.5C 307.933,43.2357 306.933,49.9024 305.5,56.5C 295.216,56.1153 288.882,60.782 286.5,70.5C 286.326,72.6934 286.993,74.5267 288.5,76C 294.268,77.2246 299.601,76.2246 304.5,73C 308.065,69.6045 311.398,66.1045 314.5,62.5C 320.33,56.1927 323.33,48.8594 323.5,40.5C 327.052,28.9044 328.718,16.9044 328.5,4.5C 335.5,4.5 342.5,4.5 349.5,4.5C 349.851,25.7424 345.851,46.0758 337.5,65.5 Z M 305.5,56.5 C 309.746,56.7797 312.746,58.7797 314.5,62.5C 311.398,66.1045 308.065,69.6045 304.5,73C 299.601,76.2246 294.268,77.2246 288.5,76C 286.993,74.5267 286.326,72.6934 286.5,70.5C 288.882,60.782 295.216,56.1153 305.5,56.5 Z"/></g>
<g><path style="opacity:1" fill="#2b6f38" d="M 311.5,36.5 C 315.845,36.8372 319.845,38.1706 323.5,40.5C 323.33,48.8594 320.33,56.1927 314.5,62.5C 312.746,58.7797 309.746,56.7797 305.5,56.5C 306.933,49.9024 307.933,43.2357 308.5,36.5C 309.5,36.5 310.5,36.5 311.5,36.5 Z"/></g>
<g><path style="opacity:0.963" fill="#d8475f" d="M 174.5,37.5 C 183.953,45.1189 192.62,53.6189 200.5,63C 192.695,71.9719 184.362,80.4719 175.5,88.5C 166.681,80.1811 158.014,71.6811 149.5,63C 158.036,54.6317 166.369,46.1317 174.5,37.5 Z"/></g>
<g><path style="opacity:0.945" fill="#ffb133" d="M 413.5,64.5 C 414.496,64.4142 415.329,64.7476 416,65.5C 418.867,72.0728 422.367,78.2395 426.5,84C 432.7,87.2626 438.7,90.7626 444.5,94.5C 438.7,98.2374 432.7,101.737 426.5,105C 422.36,111.452 418.36,117.952 414.5,124.5C 410.763,118.7 407.263,112.7 404,106.5C 397.548,102.36 391.048,98.3604 384.5,94.5C 391.048,90.6396 397.548,86.6396 404,82.5C 407.434,76.6313 410.601,70.6313 413.5,64.5 Z"/></g>
<g><path style="opacity:1" fill="#2b6f38" d="M 337.5,65.5 C 338.81,79.3028 335.81,91.9694 328.5,103.5C 319.128,106.923 309.795,107.256 300.5,104.5C 303.57,101.436 306.237,98.1029 308.5,94.5C 311.975,92.5928 315.309,90.4262 318.5,88C 325.502,80.851 331.835,73.351 337.5,65.5 Z"/></g>
<g><path style="opacity:0.964" fill="#3b9349" d="M 243.5,181.5 C 238.435,195.628 231.268,208.628 222,220.5C 219.205,218.707 216.705,216.54 214.5,214C 223.648,202.203 229.981,189.037 233.5,174.5C 241.679,148.715 235.346,127.215 214.5,110C 216.333,107.5 218.167,105 220,102.5C 220.718,101.549 221.551,101.383 222.5,102C 243.039,118.612 251.206,140.112 247,166.5C 245.986,171.554 244.819,176.554 243.5,181.5 Z"/></g>
<g><path style="opacity:0.964" fill="#389348" d="M 328.5,103.5 C 319.157,118.5 306.157,129.166 289.5,135.5C 288.353,135.182 287.519,134.516 287,133.5C 284.884,128.267 283.051,122.934 281.5,117.5C 281.833,116.833 282.167,116.167 282.5,115.5C 289.045,112.6 295.045,108.933 300.5,104.5C 309.795,107.256 319.128,106.923 328.5,103.5 Z"/></g>
<g><path style="opacity:0.971" fill="#399248" d="M 78.5,126.5 C 101.314,127.143 109.814,138.477 104,160.5C 96.0659,171.921 85.5659,175.088 72.5,170C 61.0792,162.066 57.9125,151.566 63,138.5C 66.6954,132.424 71.8621,128.424 78.5,126.5 Z"/></g>
<g><path style="opacity:0.996" fill="#3a9349" d="M 149.5,148.5 C 150.13,163.972 152.797,178.972 157.5,193.5C 167.165,221.974 181.665,247.641 201,270.5C 207.338,277.671 213.838,284.671 220.5,291.5C 210.553,299.778 201.22,308.778 192.5,318.5C 158.084,294.043 132.417,262.376 115.5,223.5C 126.463,198.254 137.796,173.254 149.5,148.5 Z"/></g>
<g><path style="opacity:1" fill="#fcdba2" d="M 149.5,148.5 C 179.589,150.53 207.589,159.197 233.5,174.5C 229.981,189.037 223.648,202.203 214.5,214C 216.705,216.54 219.205,218.707 222,220.5C 231.268,208.628 238.435,195.628 243.5,181.5C 259.479,190.668 273.812,202.001 286.5,215.5C 275.553,228.114 263.887,240.114 251.5,251.5C 225.412,224.688 194.578,205.021 159,192.5C 158.235,192.57 157.735,192.903 157.5,193.5C 152.797,178.972 150.13,163.972 149.5,148.5 Z"/></g>
<g><path style="opacity:0.984" fill="#40954b" d="M 295.5,224.5 C 282.886,235.447 270.886,247.113 259.5,259.5C 258.038,260.458 256.705,261.624 255.5,263C 252.215,261.91 249.548,259.743 247.5,256.5C 248.857,254.814 250.19,253.148 251.5,251.5C 263.887,240.114 275.553,228.114 286.5,215.5C 306.132,196.368 325.632,177.035 345,157.5C 348.259,160.055 350.593,163.055 352,166.5C 332.58,185.418 313.746,204.751 295.5,224.5 Z"/></g>
<g><path style="opacity:0.969" fill="#d84760" d="M 469.5,186.5 C 461.309,187.552 454.309,190.885 448.5,196.5C 440.35,201.656 435.35,208.989 433.5,218.5C 435.829,225.661 440.163,227.161 446.5,223C 452.009,218.481 454.676,212.648 454.5,205.5C 460.984,203.42 467.651,202.42 474.5,202.5C 474.5,201.5 474.5,200.5 474.5,199.5C 477.355,215.756 472.355,229.256 459.5,240C 449.757,245.654 439.423,246.987 428.5,244C 415.341,236.164 410.507,224.664 414,209.5C 414.642,207.238 415.475,205.071 416.5,203C 416.272,202.601 415.938,202.435 415.5,202.5C 419.793,196.793 424.459,191.293 429.5,186C 435.068,181.584 440.735,177.417 446.5,173.5C 465.54,165.025 485.54,161.025 506.5,161.5C 506.5,168.5 506.5,175.5 506.5,182.5C 494.033,182.663 481.7,183.996 469.5,186.5 Z"/></g>
<g><path style="opacity:1" fill="#c32a46" d="M 446.5,173.5 C 440.735,177.417 435.068,181.584 429.5,186C 424.459,191.293 419.793,196.793 415.5,202.5C 412.5,205.167 409.5,207.833 406.5,210.5C 403.687,201.165 404.02,191.832 407.5,182.5C 419.355,175.059 432.355,172.059 446.5,173.5 Z"/></g>
<g><path style="opacity:0.955" fill="#d84760" d="M 407.5,182.5 C 404.02,191.832 403.687,201.165 406.5,210.5C 402.067,215.955 398.4,221.955 395.5,228.5C 394.833,228.833 394.167,229.167 393.5,229.5C 388.066,227.949 382.733,226.116 377.5,224C 376.484,223.481 375.818,222.647 375.5,221.5C 381.834,204.843 392.5,191.843 407.5,182.5 Z"/></g>
<g><path style="opacity:1" fill="#c32a46" d="M 469.5,186.5 C 472.537,190.275 474.204,194.608 474.5,199.5C 474.5,200.5 474.5,201.5 474.5,202.5C 467.651,202.42 460.984,203.42 454.5,205.5C 454.22,201.254 452.22,198.254 448.5,196.5C 454.309,190.885 461.309,187.552 469.5,186.5 Z"/></g>
<g><path style="opacity:1" fill="#fddba2" d="M 295.5,224.5 C 307.98,236.644 318.98,249.977 328.5,264.5C 317.114,269.695 306.114,275.695 295.5,282.5C 294.479,283.002 294.312,283.668 295,284.5C 296.667,286.833 298.333,289.167 300,291.5C 310.757,284.223 322.257,278.556 334.5,274.5C 350.721,300.665 360.055,329.165 362.5,360C 362.316,361.376 361.649,362.209 360.5,362.5C 346.455,361.689 332.788,358.689 319.5,353.5C 306.526,317.522 286.526,286.189 259.5,259.5C 270.886,247.113 282.886,235.447 295.5,224.5 Z"/></g>
<g><path style="opacity:1" fill="#fddba3" d="M 115.5,223.5 C 132.417,262.376 158.084,294.043 192.5,318.5C 192.5,318.833 192.5,319.167 192.5,319.5C 175.167,336.167 158.167,353.167 141.5,370.5C 141.167,370.5 140.833,370.5 140.5,370.5C 114.444,350.053 95.4438,324.387 83.5,293.5C 93.6563,269.859 104.323,246.526 115.5,223.5 Z"/></g>
<g><path style="opacity:0.965" fill="#3a9349" d="M 334.5,274.5 C 322.257,278.556 310.757,284.223 300,291.5C 298.333,289.167 296.667,286.833 295,284.5C 294.312,283.668 294.479,283.002 295.5,282.5C 306.114,275.695 317.114,269.695 328.5,264.5C 353.667,253.609 379.333,252.109 405.5,260C 416.504,264.339 425.837,271.005 433.5,280C 430.984,282.683 428.317,285.183 425.5,287.5C 405.926,267.937 382.593,261.437 355.5,268C 348.304,269.677 341.304,271.844 334.5,274.5 Z"/></g>
<g><path style="opacity:0.971" fill="#399248" d="M 472.5,265.5 C 495.314,266.143 503.814,277.477 498,299.5C 490.066,310.921 479.566,314.088 466.5,309C 455.079,301.066 451.912,290.566 457,277.5C 460.695,271.424 465.862,267.424 472.5,265.5 Z"/></g>
<g><path style="opacity:1" fill="#2d6e38" d="M 220.5,291.5 C 245.532,317.524 274.866,337.19 308.5,350.5C 302.355,351.49 296.022,351.823 289.5,351.5C 254.051,350.017 221.718,339.35 192.5,319.5C 192.5,319.167 192.5,318.833 192.5,318.5C 201.22,308.778 210.553,299.778 220.5,291.5 Z"/></g>
<g><path style="opacity:0.997" fill="#399349" d="M 83.5,293.5 C 95.4438,324.387 114.444,350.053 140.5,370.5C 124.167,386.167 108.167,402.167 92.5,418.5C 72.7743,407.775 57.7743,392.441 47.5,372.5C 58.7097,345.751 70.7097,319.418 83.5,293.5 Z"/></g>
<g><path style="opacity:1" fill="#fec86f" d="M 251.5,251.5 C 250.19,253.148 248.857,254.814 247.5,256.5C 249.548,259.743 252.215,261.91 255.5,263C 256.705,261.624 258.038,260.458 259.5,259.5C 286.526,286.189 306.526,317.522 319.5,353.5C 332.788,358.689 346.455,361.689 360.5,362.5C 329.151,377.4 297.484,391.734 265.5,405.5C 225.803,408.396 188.803,399.896 154.5,380C 149.985,376.97 145.651,373.803 141.5,370.5C 158.167,353.167 175.167,336.167 192.5,319.5C 221.718,339.35 254.051,350.017 289.5,351.5C 296.011,352.818 302.678,352.818 309.5,351.5C 309.376,350.893 309.043,350.56 308.5,350.5C 274.866,337.19 245.532,317.524 220.5,291.5C 213.838,284.671 207.338,277.671 201,270.5C 181.665,247.641 167.165,221.974 157.5,193.5C 157.735,192.903 158.235,192.57 159,192.5C 194.578,205.021 225.412,224.688 251.5,251.5 Z"/></g>
<g><path style="opacity:1" fill="#9aa262" d="M 308.5,350.5 C 309.043,350.56 309.376,350.893 309.5,351.5C 302.678,352.818 296.011,352.818 289.5,351.5C 296.022,351.823 302.355,351.49 308.5,350.5 Z"/></g>
<g><path style="opacity:0.96" fill="#d84761" d="M 438.5,368.5 C 447.953,376.119 456.62,384.619 464.5,394C 456.695,402.972 448.362,411.472 439.5,419.5C 430.681,411.181 422.014,402.681 413.5,394C 422.036,385.632 430.369,377.132 438.5,368.5 Z"/></g>
<g><path style="opacity:1" fill="#2b6e38" d="M 140.5,370.5 C 140.833,370.5 141.167,370.5 141.5,370.5C 145.651,373.803 149.985,376.97 154.5,380C 188.803,399.896 225.803,408.396 265.5,405.5C 238.471,418.679 211.138,431.346 183.5,443.5C 151.166,442.829 120.833,434.829 92.5,419.5C 92.5,419.167 92.5,418.833 92.5,418.5C 108.167,402.167 124.167,386.167 140.5,370.5 Z"/></g>
<g><path style="opacity:1" fill="#fcdaa2" d="M 47.5,372.5 C 57.7743,392.441 72.7743,407.775 92.5,418.5C 92.5,418.833 92.5,419.167 92.5,419.5C 77.1186,434.215 62.1186,449.215 47.5,464.5C 47.1667,464.5 46.8333,464.5 46.5,464.5C 37.2362,458.404 29.4029,450.737 23,441.5C 21.5462,438.929 20.3795,436.262 19.5,433.5C 28.0493,412.739 37.3826,392.406 47.5,372.5 Z"/></g>
<g><path style="opacity:1" fill="#fdc86f" d="M 92.5,419.5 C 120.833,434.829 151.166,442.829 183.5,443.5C 160.913,454.624 137.913,464.958 114.5,474.5C 91.0184,478.241 68.6851,474.908 47.5,464.5C 62.1186,449.215 77.1186,434.215 92.5,419.5 Z"/></g>
<g><path style="opacity:0.987" fill="#399349" d="M 19.5,433.5 C 20.3795,436.262 21.5462,438.929 23,441.5C 29.4029,450.737 37.2362,458.404 46.5,464.5C 35.1128,474.886 24.4461,485.886 14.5,497.5C 5.47316,488.754 2.3065,478.088 5,465.5C 9.06052,454.386 13.8939,443.72 19.5,433.5 Z"/></g>
<g><path style="opacity:0.945" fill="#ffb133" d="M 348.5,439.5 C 349.496,439.414 350.329,439.748 351,440.5C 353.867,447.073 357.367,453.239 361.5,459C 367.7,462.263 373.7,465.763 379.5,469.5C 373.7,473.237 367.7,476.737 361.5,480C 357.36,486.452 353.36,492.952 349.5,499.5C 345.763,493.7 342.263,487.7 339,481.5C 332.548,477.36 326.048,473.36 319.5,469.5C 326.048,465.64 332.548,461.64 339,457.5C 342.434,451.631 345.601,445.631 348.5,439.5 Z"/></g>
<g><path style="opacity:1" fill="#2b6e38" d="M 46.5,464.5 C 46.8333,464.5 47.1667,464.5 47.5,464.5C 68.6851,474.908 91.0184,478.241 114.5,474.5C 91.8971,485.655 68.8971,496.155 45.5,506C 35.5083,507.796 26.1749,506.13 17.5,501C 16.2899,499.961 15.2899,498.794 14.5,497.5C 24.4461,485.886 35.1128,474.886 46.5,464.5 Z"/></g>
</svg>
