<svg width="1024" height="1024" viewBox="0 0 1024 1024" fill="none" xmlns="http://www.w3.org/2000/svg">
<path fill-rule="evenodd" clip-rule="evenodd" d="M1001.35 662H22C86.1209 871.581 281.099 1024 511.677 1024C742.254 1024 937.232 871.581 1001.35 662ZM1001.35 362C937.232 152.419 742.254 0 511.677 0C281.099 0 86.1209 152.419 22 362H1001.35Z" fill="#274603"/>
<path d="M351.802 619.711L310.552 589.477C306.646 590.727 302.622 591.703 298.481 592.406C294.341 593.109 290.122 593.461 285.825 593.461C274.888 593.461 265.044 591.352 256.294 587.133C247.544 582.914 240.083 576.938 233.911 569.203C227.817 561.469 223.13 552.328 219.849 541.781C216.646 531.234 215.044 519.633 215.044 506.977V504.516C215.044 491.859 216.646 480.258 219.849 469.711C223.13 459.164 227.817 450.023 233.911 442.289C240.005 434.477 247.427 428.461 256.177 424.242C264.927 420.023 274.81 417.914 285.825 417.914C297.388 417.914 307.583 420.023 316.411 424.242C325.239 428.461 332.622 434.477 338.56 442.289C344.575 450.023 349.106 459.164 352.153 469.711C355.2 480.258 356.724 491.859 356.724 504.516V506.977C356.724 522.367 354.888 536.273 351.216 548.695C347.544 561.039 340.669 571.039 330.591 578.695L364.81 602.484L351.802 619.711ZM285.825 574.242C296.841 574.242 305.864 571.43 312.896 565.805C319.927 560.18 325.122 552.328 328.481 542.25C331.919 532.094 333.638 520.336 333.638 506.977V504.281C333.638 491 331.958 479.359 328.599 469.359C325.317 459.281 320.161 451.43 313.13 445.805C306.099 440.102 296.997 437.25 285.825 437.25C275.669 437.25 267.036 440.102 259.927 445.805C252.817 451.508 247.388 459.398 243.638 469.477C239.966 479.477 238.13 491.078 238.13 504.281V506.977C238.13 520.258 239.927 531.977 243.521 542.133C247.192 552.211 252.583 560.102 259.692 565.805C266.802 571.43 275.513 574.242 285.825 574.242ZM377.583 591V576.234L396.685 572.953V438.539L377.583 435.258V420.375H396.685H455.981C468.169 420.375 478.56 422.523 487.153 426.82C495.747 431.039 502.31 436.977 506.841 444.633C511.372 452.289 513.638 461.234 513.638 471.469C513.638 481.781 511.372 490.766 506.841 498.422C502.31 506.078 495.747 512.016 487.153 516.234C478.56 520.453 468.169 522.562 455.981 522.562H419.771V572.953L438.872 576.234V591H377.583ZM419.771 504.516H455.981C467.544 504.516 476.177 501.43 481.88 495.258C487.661 489.008 490.552 481.156 490.552 471.703C490.552 462.25 487.661 454.359 481.88 448.031C476.177 441.703 467.544 438.539 455.981 438.539H419.771V504.516ZM502.622 591V576.234L515.278 574.477L574.927 420.375H594.731L653.325 574.477L665.864 576.234V591H616.88V576.234L629.771 574.008L618.521 542.602H550.2L538.599 574.008L551.489 576.234V591H502.622ZM557.349 523.266H611.489L586.411 453.891L585.005 450.023H584.302L582.896 453.891L557.349 523.266ZM699.263 591V576.234L718.364 572.953V528.891L665.864 437.484L651.802 435.258V420.375H710.63V435.258L691.177 437.484L727.388 504.516L729.849 509.086L729.966 508.852L732.31 504.516L770.278 437.484L750.122 435.258V420.375H807.778V435.258L792.896 437.484L741.333 527.133V572.953L760.435 576.234V591H699.263Z" fill="#274603"/>
<g clip-path="url(#clip0_640_4226)">
<path opacity="0.932" fill-rule="evenodd" clip-rule="evenodd" d="M456.177 708.5C492.512 708.333 528.845 708.5 565.177 709C571.424 713.514 571.757 718.514 566.177 724C564.844 724.333 563.51 724.667 562.177 725C527.844 725.667 493.51 725.667 459.177 725C452.059 723.008 449.892 718.508 452.677 711.5C453.822 710.364 454.989 709.364 456.177 708.5Z" fill="#FEFFFE"/>
<path opacity="0.957" fill-rule="evenodd" clip-rule="evenodd" d="M623.176 255.5H399.176C378.364 260.479 365.864 273.479 361.676 294.5C361.573 317 361.485 339.5 361.414 362H378.416C378.487 339.833 378.574 317.667 378.676 295.5C383.439 280.565 393.606 272.565 409.176 271.5H452.176C452.01 278.841 452.176 286.174 452.676 293.5C453.89 295.049 455.39 296.215 457.176 297C491.509 297.667 525.843 297.667 560.176 297C562.343 296.167 563.843 294.667 564.676 292.5C565.176 285.508 565.342 278.508 565.176 271.5C581.179 271.333 597.179 271.5 613.176 272C628.906 272.741 639.072 280.574 643.676 295.5C643.779 317.667 643.866 339.833 643.937 362H660.939C660.868 339.5 660.78 317 660.676 294.5C656.482 273.474 643.982 260.474 623.176 255.5ZM660.936 662H643.934C643.863 683.833 643.778 705.667 643.676 727.5C640.103 739.406 632.27 746.906 620.176 750C583.871 751.144 547.537 751.644 511.176 751.5C474.815 751.644 438.481 751.144 402.176 750C390.082 746.906 382.249 739.406 378.676 727.5C378.575 705.667 378.489 683.833 378.419 662H361.417C361.488 684.167 361.574 706.333 361.676 728.5C365.864 749.521 378.364 762.521 399.176 767.5H623.176C643.982 762.526 656.482 749.526 660.676 728.5C660.779 706.333 660.865 684.167 660.936 662Z" fill="#FEFFFE"/>
</g>
<defs>
<clipPath id="clip0_640_4226">
<rect width="512" height="512" fill="white" transform="translate(255.677 256)"/>
</clipPath>
</defs>
</svg>
