<svg width="240" height="240" viewBox="0 0 240 240" fill="none" xmlns="http://www.w3.org/2000/svg">
<path fill-rule="evenodd" clip-rule="evenodd" d="M160.332 87.3242C157.337 89.4084 154.42 91.5959 151.582 93.8867C148.013 96.308 144.686 96.0346 141.602 93.0664C139.876 90.1658 139.967 87.3404 141.875 84.5898C142.888 83.623 143.845 82.6206 144.746 81.582C147.707 78.6669 150.715 75.7959 153.77 72.9688C141.719 72.9217 129.688 72.785 117.676 72.5586C121.323 67.3243 125.334 62.3568 129.707 57.6563C131.994 55.9664 134.546 54.8727 137.363 54.375C153.314 54.1927 169.264 54.1927 185.215 54.375C185.533 62.9687 185.578 71.582 185.352 80.2148C179.948 80.441 174.525 80.5777 169.082 80.625C166.206 82.9268 163.29 85.16 160.332 87.3242Z" fill="#D68B56"/>
<path fill-rule="evenodd" clip-rule="evenodd" d="M117.676 72.5586C129.688 72.785 141.719 72.9217 153.77 72.9688C150.715 75.7958 147.707 78.6669 144.746 81.582C127.337 81.582 109.928 81.582 92.5195 81.582C92.0659 85.4993 89.8784 87.6868 85.957 88.1445C85.957 93.6133 85.957 99.082 85.957 104.551C83.0403 104.551 80.1238 104.551 77.207 104.551C77.1163 94.8427 77.2075 85.1813 77.4805 75.5664C77.4627 75.6862 77.5081 75.7774 77.6172 75.8398C78.1184 74.6094 78.9844 73.7435 80.2148 73.2422C80.1525 73.1331 80.0612 73.0876 79.9414 73.1055C92.4927 72.9219 105.071 72.7396 117.676 72.5586Z" fill="#25EEC7"/>
<path opacity="0.616" fill-rule="evenodd" clip-rule="evenodd" d="M79.9414 73.1055C80.0612 73.0876 80.1525 73.1331 80.2148 73.2422C78.9844 73.7435 78.1184 74.6094 77.6172 75.8398C77.5081 75.7774 77.4627 75.6862 77.4805 75.5664C77.845 74.2904 78.6653 73.47 79.9414 73.1055Z" fill="#938C76"/>
<path fill-rule="evenodd" clip-rule="evenodd" d="M144.746 81.582C143.845 82.6205 142.888 83.623 141.875 84.5898C139.967 87.3404 139.876 90.1658 141.602 93.0664C144.686 96.0346 148.013 96.308 151.582 93.8867C151.582 98.5352 151.582 103.184 151.582 107.832C149.023 107.996 147.063 109.181 145.703 111.387C145.182 112.323 144.955 113.325 145.02 114.395C140.28 114.395 135.54 114.395 130.801 114.395C130.846 112.205 130.801 110.018 130.664 107.832C130.142 106.126 129.003 105.078 127.246 104.688C126.156 104.551 125.062 104.505 123.965 104.551C127.506 99.7134 127.233 95.1106 123.145 90.7422C117.773 87.9334 113.899 89.3463 111.523 94.9805C110.684 98.5136 111.367 101.704 113.574 104.551C111.296 104.551 109.017 104.551 106.738 104.551C101.634 104.551 96.53 104.551 91.4258 104.551C89.6028 104.551 87.78 104.551 85.957 104.551C85.957 99.082 85.957 93.6133 85.957 88.1445C89.8784 87.6868 92.0659 85.4993 92.5195 81.582C109.928 81.582 127.337 81.582 144.746 81.582Z" fill="#1FC8A7"/>
<path fill-rule="evenodd" clip-rule="evenodd" d="M160.332 87.3242C160.378 98.3533 160.332 109.382 160.195 120.41C159.694 121.641 158.828 122.507 157.598 123.008C148.666 123.145 139.733 123.19 130.801 123.145C130.801 120.228 130.801 117.311 130.801 114.395C135.54 114.395 140.28 114.395 145.02 114.395C144.955 113.325 145.182 112.323 145.703 111.387C147.063 109.181 149.023 107.996 151.582 107.832C151.582 103.184 151.582 98.5352 151.582 93.8867C154.42 91.5959 157.337 89.4084 160.332 87.3242Z" fill="#27EEC7"/>
<path fill-rule="evenodd" clip-rule="evenodd" d="M123.965 104.551C120.501 104.551 117.038 104.551 113.574 104.551C111.367 101.704 110.684 98.5136 111.523 94.9805C113.899 89.3463 117.773 87.9335 123.145 90.7422C127.233 95.1106 127.506 99.7134 123.965 104.551Z" fill="#EBEAFC"/>
<path fill-rule="evenodd" clip-rule="evenodd" d="M77.207 104.551C80.1238 104.551 83.0403 104.551 85.957 104.551C87.78 104.551 89.6028 104.551 91.4258 104.551C91.2986 110.129 91.4354 115.689 91.8359 121.23C92.0829 121.559 92.4017 121.787 92.793 121.914C96.8945 122.096 100.996 122.096 105.098 121.914C105.598 121.839 106.008 121.611 106.328 121.23C106.729 115.689 106.865 110.129 106.738 104.551C109.017 104.551 111.296 104.551 113.574 104.551C117.038 104.551 120.501 104.551 123.965 104.551C125.062 104.505 126.156 104.551 127.246 104.687C129.003 105.078 130.142 106.126 130.664 107.832C130.801 110.018 130.846 112.205 130.801 114.395C130.801 117.311 130.801 120.228 130.801 123.145C130.846 137.181 130.801 151.218 130.664 165.254C130.163 166.484 129.297 167.35 128.066 167.852C126.063 167.988 124.058 168.034 122.051 167.988C110.02 167.988 97.9883 167.988 85.957 167.988C89.6925 164.025 93.566 160.197 97.5781 156.504C100.574 152.055 99.799 148.455 95.2539 145.703C93.0795 145.047 90.9831 145.23 88.9648 146.25C83.0898 150.874 77.1652 155.431 71.1914 159.922C69.9511 160.299 68.675 160.436 67.3633 160.332C67.3177 142.649 67.3633 124.967 67.5 107.285C68.0013 106.055 68.8672 105.189 70.0977 104.687C72.4657 104.551 74.8355 104.505 77.207 104.551Z" fill="#274603"/>
<path fill-rule="evenodd" clip-rule="evenodd" d="M91.4258 104.551C96.53 104.551 101.634 104.551 106.738 104.551C106.865 110.129 106.729 115.689 106.328 121.23C106.008 121.611 105.598 121.839 105.098 121.914C100.996 122.096 96.8945 122.096 92.793 121.914C92.4017 121.787 92.0828 121.559 91.8359 121.23C91.4353 115.689 91.2986 110.129 91.4258 104.551Z" fill="#FDE6CA"/>
<path fill-rule="evenodd" clip-rule="evenodd" d="M85.957 167.988C97.8543 168.08 109.703 168.353 121.504 168.809C118.601 172.762 115.639 176.681 112.617 180.566C109.832 183.623 106.414 185.582 102.363 186.445C86.4129 186.628 70.4622 186.628 54.5117 186.445C54.375 186.309 54.2383 186.172 54.1016 186.035C53.9193 177.65 53.9193 169.264 54.1016 160.879C54.2383 160.742 54.375 160.605 54.5117 160.469C58.7946 160.332 63.0785 160.286 67.3633 160.332C68.675 160.436 69.9511 160.299 71.1914 159.922C77.1652 155.431 83.0898 150.874 88.9649 146.25C90.9831 145.23 93.0795 145.047 95.2539 145.703C99.799 148.455 100.574 152.055 97.5781 156.504C93.566 160.197 89.6925 164.025 85.957 167.988Z" fill="#D68B55"/>
<path opacity="0.933" fill-rule="evenodd" clip-rule="evenodd" d="M85.957 167.988C97.9883 167.988 110.02 167.988 122.051 167.988C122.071 168.406 121.888 168.679 121.504 168.809C109.703 168.353 97.8543 168.08 85.957 167.988Z" fill="#3BCFF5"/>
</svg>
