<?xml version="1.0" encoding="UTF-8"?>
<!DOCTYPE svg PUBLIC "-//W3C//DTD SVG 1.1//EN" "http://www.w3.org/Graphics/SVG/1.1/DTD/svg11.dtd">
<svg xmlns="http://www.w3.org/2000/svg" version="1.1" width="1024px" height="1024px" style="shape-rendering:geometricPrecision; text-rendering:geometricPrecision; image-rendering:optimizeQuality; fill-rule:evenodd; clip-rule:evenodd" xmlns:xlink="http://www.w3.org/1999/xlink">
<g><path style="opacity:1" fill="#fefefe" d="M -0.5,-0.5 C 160.5,-0.5 321.5,-0.5 482.5,-0.5C 331.673,10.9917 208.173,74.6584 112,190.5C 71.6832,241.451 41.5165,298.118 21.5,360.5C 134.831,361.5 248.165,361.833 361.5,361.5C 367.167,361.5 372.833,361.5 378.5,361.5C 466.833,361.5 555.167,361.5 643.5,361.5C 649.167,361.5 654.833,361.5 660.5,361.5C 773.833,361.5 887.167,361.5 1000.5,361.5C 961.901,240.42 889.234,145.587 782.5,77C 704.841,29.3358 620.507,3.50252 529.5,-0.5C 694.167,-0.5 858.833,-0.5 1023.5,-0.5C 1023.5,340.833 1023.5,682.167 1023.5,1023.5C 857.5,1023.5 691.5,1023.5 525.5,1023.5C 668.746,1017.12 789.579,962.117 888,858.5C 939.618,801.636 977.118,736.303 1000.5,662.5C 887.169,661.5 773.835,661.167 660.5,661.5C 654.833,661.5 649.167,661.5 643.5,661.5C 555.167,661.5 466.833,661.5 378.5,661.5C 372.833,661.5 367.167,661.5 361.5,661.5C 248.166,661.333 134.833,661.5 21.5,662C 74.9474,822.449 180.614,933.116 338.5,994C 388.547,1011.19 439.881,1021.02 492.5,1023.5C 328.167,1023.5 163.833,1023.5 -0.5,1023.5C -0.5,682.167 -0.5,340.833 -0.5,-0.5 Z"/></g>
<g><path style="opacity:1" fill="#274603" d="M 482.5,-0.5 C 498.167,-0.5 513.833,-0.5 529.5,-0.5C 620.507,3.50252 704.841,29.3358 782.5,77C 889.234,145.587 961.901,240.42 1000.5,361.5C 887.167,361.5 773.833,361.5 660.5,361.5C 660.667,338.164 660.5,314.831 660,291.5C 655.575,272.742 644.075,260.909 625.5,256C 548.5,255.333 471.5,255.333 394.5,256C 377.931,261.569 367.098,272.736 362,289.5C 361.5,313.498 361.333,337.498 361.5,361.5C 248.165,361.833 134.831,361.5 21.5,360.5C 41.5165,298.118 71.6832,241.451 112,190.5C 208.173,74.6584 331.673,10.9917 482.5,-0.5 Z"/></g>
<g><path style="opacity:1" fill="#f2f4f0" d="M 660.5,361.5 C 654.833,361.5 649.167,361.5 643.5,361.5C 643.667,338.831 643.5,316.164 643,293.5C 638.62,280.782 629.787,273.615 616.5,272C 599.17,271.5 581.837,271.333 564.5,271.5C 564.666,278.508 564.5,285.508 564,292.5C 563.5,294.333 562.333,295.5 560.5,296C 525.5,296.667 490.5,296.667 455.5,296C 454.421,295.044 453.255,294.211 452,293.5C 451.5,286.174 451.334,278.841 451.5,271.5C 434.497,271.333 417.497,271.5 400.5,272C 390.421,275.745 383.254,282.578 379,292.5C 378.5,315.498 378.333,338.498 378.5,361.5C 372.833,361.5 367.167,361.5 361.5,361.5C 361.333,337.498 361.5,313.498 362,289.5C 367.098,272.736 377.931,261.569 394.5,256C 471.5,255.333 548.5,255.333 625.5,256C 644.075,260.909 655.575,272.742 660,291.5C 660.5,314.831 660.667,338.164 660.5,361.5 Z"/></g>
<g><path style="opacity:1" fill="#274603" d="M 643.5,361.5 C 555.167,361.5 466.833,361.5 378.5,361.5C 378.333,338.498 378.5,315.498 379,292.5C 383.254,282.578 390.421,275.745 400.5,272C 417.497,271.5 434.497,271.333 451.5,271.5C 451.334,278.841 451.5,286.174 452,293.5C 453.255,294.211 454.421,295.044 455.5,296C 490.5,296.667 525.5,296.667 560.5,296C 562.333,295.5 563.5,294.333 564,292.5C 564.5,285.508 564.666,278.508 564.5,271.5C 581.837,271.333 599.17,271.5 616.5,272C 629.787,273.615 638.62,280.782 643,293.5C 643.5,316.164 643.667,338.831 643.5,361.5 Z"/></g>
<g><path style="opacity:1" fill="#294705" d="M 273.5,417.5 C 315.426,414.372 341.926,433.039 353,473.5C 358.377,500.492 357.044,527.158 349,553.5C 344.899,563.19 338.732,571.357 330.5,578C 341.068,586.201 351.901,594.034 363,601.5C 360.285,607.879 356.285,613.545 351,618.5C 337.762,609.128 324.596,599.628 311.5,590C 257.421,600.586 225.588,578.753 216,524.5C 210.915,495.324 216.248,468.324 232,443.5C 242.645,429.602 256.478,420.935 273.5,417.5 Z"/></g>
<g><path style="opacity:1" fill="#7f916a" d="M 461.5,420.5 C 433.5,420.5 405.5,420.5 377.5,420.5C 377.5,425.167 377.5,429.833 377.5,434.5C 376.513,429.695 376.179,424.695 376.5,419.5C 405.005,419.169 433.338,419.502 461.5,420.5 Z"/></g>
<g><path style="opacity:1" fill="#788b62" d="M 651.5,420.5 C 670.993,419.503 690.66,419.17 710.5,419.5C 710.821,424.695 710.487,429.695 709.5,434.5C 709.5,429.833 709.5,425.167 709.5,420.5C 690.167,420.5 670.833,420.5 651.5,420.5 Z"/></g>
<g><path style="opacity:1" fill="#74875d" d="M 749.5,420.5 C 768.659,419.503 787.993,419.17 807.5,419.5C 807.821,424.695 807.487,429.695 806.5,434.5C 806.5,429.833 806.5,425.167 806.5,420.5C 787.5,420.5 768.5,420.5 749.5,420.5 Z"/></g>
<g><path style="opacity:1" fill="#284705" d="M 461.5,420.5 C 496.575,423.314 513.741,442.314 513,477.5C 508.966,503.532 493.799,518.032 467.5,521C 451.503,521.5 435.503,521.667 419.5,521.5C 419.333,538.503 419.5,555.503 420,572.5C 426.051,574.008 432.217,575.008 438.5,575.5C 438.5,580.5 438.5,585.5 438.5,590.5C 418.167,590.5 397.833,590.5 377.5,590.5C 377.173,585.456 377.506,580.456 378.5,575.5C 384.162,574.28 389.829,573.28 395.5,572.5C 396.499,527.67 396.832,482.67 396.5,437.5C 395.5,437.5 394.5,437.5 393.5,437.5C 387.996,436.731 382.662,435.731 377.5,434.5C 377.5,429.833 377.5,425.167 377.5,420.5C 405.5,420.5 433.5,420.5 461.5,420.5 Z"/></g>
<g><path style="opacity:1" fill="#294705" d="M 574.5,419.5 C 581.2,419.17 587.866,419.503 594.5,420.5C 614.409,471.645 633.742,522.979 652.5,574.5C 656.842,574.739 661.176,575.073 665.5,575.5C 665.5,580.5 665.5,585.5 665.5,590.5C 649.167,590.5 632.833,590.5 616.5,590.5C 616.5,585.5 616.5,580.5 616.5,575.5C 620.891,574.992 625.225,574.158 629.5,573C 625.74,563.222 622.073,553.389 618.5,543.5C 595.507,542.334 572.507,542.167 549.5,543C 545.449,552.483 541.782,562.15 538.5,572C 538.905,572.945 539.572,573.612 540.5,574C 543.827,574.61 547.161,575.11 550.5,575.5C 550.5,580.5 550.5,585.5 550.5,590.5C 534.5,590.5 518.5,590.5 502.5,590.5C 502.5,585.5 502.5,580.5 502.5,575.5C 506.728,575.013 510.895,574.347 515,573.5C 534.743,522.099 554.577,470.765 574.5,419.5 Z"/></g>
<g><path style="opacity:1" fill="#294705" d="M 651.5,420.5 C 670.833,420.5 690.167,420.5 709.5,420.5C 709.5,425.167 709.5,429.833 709.5,434.5C 703.51,435.24 697.51,435.906 691.5,436.5C 703.373,460.578 716.04,484.245 729.5,507.5C 742.833,484.167 756.167,460.833 769.5,437.5C 762.899,436.173 756.233,435.507 749.5,435.5C 749.5,430.5 749.5,425.5 749.5,420.5C 768.5,420.5 787.5,420.5 806.5,420.5C 806.5,425.167 806.5,429.833 806.5,434.5C 801.616,435.215 796.783,436.215 792,437.5C 775.399,467.092 758.399,496.425 741,525.5C 740.5,541.163 740.333,556.83 740.5,572.5C 746.847,573.407 753.18,574.407 759.5,575.5C 759.5,580.5 759.5,585.5 759.5,590.5C 739.167,590.5 718.833,590.5 698.5,590.5C 698.5,585.5 698.5,580.5 698.5,575.5C 704.801,574.394 711.134,573.394 717.5,572.5C 717.667,557.163 717.5,541.83 717,526.5C 699.747,496.996 682.747,467.33 666,437.5C 661.287,436.232 656.454,435.565 651.5,435.5C 651.5,430.5 651.5,425.5 651.5,420.5 Z"/></g>
<g><path style="opacity:1" fill="#fdfdfd" d="M 278.5,436.5 C 306.296,434.8 323.463,447.466 330,474.5C 335.795,500.036 334.128,525.036 325,549.5C 314.247,568.956 297.747,576.79 275.5,573C 261.02,569.191 250.854,560.357 245,546.5C 235.864,520.696 235.197,494.696 243,468.5C 249.439,451.548 261.272,440.881 278.5,436.5 Z"/></g>
<g><path style="opacity:1" fill="#adb89f" d="M 393.5,437.5 C 394.5,437.5 395.5,437.5 396.5,437.5C 396.832,482.67 396.499,527.67 395.5,572.5C 396.153,527.282 395.487,482.282 393.5,437.5 Z"/></g>
<g><path style="opacity:1" fill="#fcfcfb" d="M 419.5,437.5 C 433.504,437.333 447.504,437.5 461.5,438C 483.507,443.153 492.674,456.987 489,479.5C 485.845,494.318 476.678,502.484 461.5,504C 447.504,504.5 433.504,504.667 419.5,504.5C 419.5,482.167 419.5,459.833 419.5,437.5 Z"/></g>
<g><path style="opacity:1" fill="#fcfcfb" d="M 610.5,521.5 C 592.833,522.833 575.167,522.833 557.5,521.5C 565.838,497.32 574.671,473.32 584,449.5C 593.322,473.298 602.156,497.298 610.5,521.5 Z"/></g>
<g><path style="opacity:1" fill="#5c7341" d="M 557.5,521.5 C 575.167,522.833 592.833,522.833 610.5,521.5C 611.043,521.56 611.376,521.893 611.5,522.5C 593.167,523.833 574.833,523.833 556.5,522.5C 556.624,521.893 556.957,521.56 557.5,521.5 Z"/></g>
<g><path style="opacity:1" fill="#274603" d="M 361.5,661.5 C 361.333,685.169 361.5,708.836 362,732.5C 367.623,750.457 379.457,761.957 397.5,767C 472.833,767.667 548.167,767.667 623.5,767C 643.437,762.063 655.603,749.563 660,729.5C 660.5,706.836 660.667,684.169 660.5,661.5C 773.835,661.167 887.169,661.5 1000.5,662.5C 977.118,736.303 939.618,801.636 888,858.5C 789.579,962.117 668.746,1017.12 525.5,1023.5C 514.5,1023.5 503.5,1023.5 492.5,1023.5C 439.881,1021.02 388.547,1011.19 338.5,994C 180.614,933.116 74.9474,822.449 21.5,662C 134.833,661.5 248.166,661.333 361.5,661.5 Z"/></g>
<g><path style="opacity:1" fill="#eef1ea" d="M 361.5,661.5 C 367.167,661.5 372.833,661.5 378.5,661.5C 378.333,684.169 378.5,706.836 379,729.5C 382.923,739.09 389.756,745.59 399.5,749C 473.167,750.996 546.834,750.996 620.5,749C 631.829,746.337 639.329,739.503 643,728.5C 643.5,706.169 643.667,683.836 643.5,661.5C 649.167,661.5 654.833,661.5 660.5,661.5C 660.667,684.169 660.5,706.836 660,729.5C 655.603,749.563 643.437,762.063 623.5,767C 548.167,767.667 472.833,767.667 397.5,767C 379.457,761.957 367.623,750.457 362,732.5C 361.5,708.836 361.333,685.169 361.5,661.5 Z"/></g>
<g><path style="opacity:1" fill="#274603" d="M 378.5,661.5 C 466.833,661.5 555.167,661.5 643.5,661.5C 643.667,683.836 643.5,706.169 643,728.5C 639.329,739.503 631.829,746.337 620.5,749C 546.834,750.996 473.167,750.996 399.5,749C 389.756,745.59 382.923,739.09 379,729.5C 378.5,706.836 378.333,684.169 378.5,661.5 Z"/></g>
<g><path style="opacity:1" fill="#eaeee7" d="M 455.5,707.5 C 492.178,707.228 528.845,707.728 565.5,709C 570.894,714.323 570.561,719.323 564.5,724C 528.833,724.667 493.167,724.667 457.5,724C 455.152,723.654 453.319,722.487 452,720.5C 450.539,715.326 451.706,710.993 455.5,707.5 Z"/></g>
</svg>
