<svg width="240" height="240" viewBox="0 0 240 240" fill="none" xmlns="http://www.w3.org/2000/svg">
<g clip-path="url(#clip0_38_1665)">
<path opacity="0.954" fill-rule="evenodd" clip-rule="evenodd" d="M50.957 49.8633C58.431 49.8633 65.905 49.8633 73.3789 49.8633C73.3789 51.5039 73.3789 53.1445 73.3789 54.7852C67.181 54.7852 60.9831 54.7852 54.7852 54.7852C54.7852 60.9831 54.7852 67.181 54.7852 73.3789C53.1445 73.3789 51.5039 73.3789 49.8633 73.3789C49.8633 65.905 49.8633 58.431 49.8633 50.957C50.319 50.6836 50.6836 50.319 50.957 49.8633Z" fill="#274603"/>
<path opacity="0.954" fill-rule="evenodd" clip-rule="evenodd" d="M166.348 49.8633C173.822 49.8633 181.296 49.8633 188.77 49.8633C189.043 50.319 189.407 50.6836 189.863 50.957C189.863 58.431 189.863 65.905 189.863 73.3789C188.223 73.3789 186.582 73.3789 184.941 73.3789C184.941 67.181 184.941 60.9831 184.941 54.7852C178.743 54.7852 172.546 54.7852 166.348 54.7852C166.348 53.1445 166.348 51.5039 166.348 49.8633Z" fill="#274603"/>
<path opacity="0.974" fill-rule="evenodd" clip-rule="evenodd" d="M63.2617 61.3476C69.916 61.3021 76.5696 61.3476 83.2227 61.4844C83.655 61.6776 84.0651 61.9054 84.4531 62.168C84.9038 69.3447 84.9951 76.5452 84.7266 83.7695C84.4075 84.0886 84.0886 84.4075 83.7695 84.7266C76.7513 84.9089 69.7331 84.9089 62.7149 84.7266C62.0819 84.4233 61.6718 83.9218 61.4844 83.2227C61.3021 76.569 61.3021 69.9153 61.4844 63.2617C61.7628 62.3007 62.3553 61.6626 63.2617 61.3476ZM66.2695 66.2695C70.8268 66.2695 75.3841 66.2695 79.9414 66.2695C79.9414 70.8268 79.9414 75.3841 79.9414 79.9414C75.3841 79.9414 70.8268 79.9414 66.2695 79.9414C66.2695 75.3841 66.2695 70.8268 66.2695 66.2695Z" fill="#274603"/>
<path opacity="0.997" fill-rule="evenodd" clip-rule="evenodd" d="M94.1602 61.6211C111.296 61.2565 128.431 61.2565 145.566 61.6211C145.294 64.5798 145.203 67.5877 145.293 70.6445C143.743 70.6445 142.194 70.6445 140.645 70.6445C140.645 69.1862 140.645 67.7278 140.645 66.2695C128.34 66.2695 116.035 66.2695 103.73 66.2695C103.82 69.4174 103.729 72.5164 103.457 75.5664C102.052 75.2962 100.593 75.2051 99.082 75.293C99.1717 72.2361 99.0807 69.2283 98.8086 66.2695C97.4031 65.9993 95.9446 65.9082 94.4336 65.9961C94.5214 64.485 94.4303 63.0267 94.1602 61.6211Z" fill="#274603"/>
<path opacity="0.871" fill-rule="evenodd" clip-rule="evenodd" d="M145.566 61.6211C145.566 64.72 145.566 67.819 145.566 70.918C143.874 71.0063 142.233 70.9151 140.645 70.6445C142.194 70.6445 143.743 70.6445 145.293 70.6445C145.203 67.5877 145.294 64.5799 145.566 61.6211Z" fill="#274603"/>
<path opacity="0.974" fill-rule="evenodd" clip-rule="evenodd" d="M154.863 63.5352C155.224 62.9984 155.589 62.4515 155.957 61.8945C156.071 61.6972 156.253 61.5605 156.504 61.4844C163.157 61.3021 169.811 61.3021 176.465 61.4844C177.107 61.579 177.608 61.898 177.969 62.4414C178.28 66.0236 178.417 69.6238 178.379 73.2422C178.333 76.569 178.288 79.8957 178.242 83.2227C178.055 83.9218 177.645 84.4233 177.012 84.7266C169.993 84.909 162.975 84.909 155.957 84.7266C155.638 84.4075 155.319 84.0886 155 83.7695C154.863 77.0254 154.818 70.2806 154.863 63.5352ZM159.785 66.2695C164.343 66.2695 168.9 66.2695 173.457 66.2695C173.457 70.8268 173.457 75.3841 173.457 79.9414C168.9 79.9414 164.343 79.9414 159.785 79.9414C159.785 75.3841 159.785 70.8268 159.785 66.2695Z" fill="#274603"/>
<path opacity="0.757" fill-rule="evenodd" clip-rule="evenodd" d="M155.957 61.8945C155.589 62.4515 155.224 62.9983 154.863 63.5352C154.829 62.6853 155.194 62.1384 155.957 61.8945Z" fill="#274603"/>
<path opacity="0.737" fill-rule="evenodd" clip-rule="evenodd" d="M94.1602 61.6211C94.4303 63.0267 94.5214 64.485 94.4336 65.9961C95.9446 65.9082 97.4031 65.9993 98.8086 66.2695C97.259 66.2695 95.7097 66.2695 94.1602 66.2695C94.1602 64.72 94.1602 63.1706 94.1602 61.6211Z" fill="#274603"/>
<path opacity="0.804" fill-rule="evenodd" clip-rule="evenodd" d="M98.8086 66.2695C99.0807 69.2283 99.1717 72.2361 99.082 75.293C100.593 75.2051 102.052 75.2962 103.457 75.5664C101.907 75.5664 100.358 75.5664 98.8086 75.5664C98.8086 72.4675 98.8086 69.3685 98.8086 66.2695Z" fill="#274603"/>
<path opacity="0.907" fill-rule="evenodd" clip-rule="evenodd" d="M70.6445 70.6445C72.2852 70.6445 73.9258 70.6445 75.5664 70.6445C75.5664 72.2852 75.5664 73.9258 75.5664 75.5664C73.9258 75.5664 72.2852 75.5664 70.6445 75.5664C70.6445 73.9258 70.6445 72.2852 70.6445 70.6445Z" fill="#274603"/>
<path opacity="0.907" fill-rule="evenodd" clip-rule="evenodd" d="M89.5117 70.6445C91.1523 70.6445 92.793 70.6445 94.4336 70.6445C94.4336 72.2852 94.4336 73.9258 94.4336 75.5664C92.793 75.5664 91.1523 75.5664 89.5117 75.5664C89.5117 73.9258 89.5117 72.2852 89.5117 70.6445Z" fill="#274603"/>
<path opacity="0.942" fill-rule="evenodd" clip-rule="evenodd" d="M108.105 70.918C111.247 70.6459 114.437 70.5548 117.676 70.6445C117.764 72.3371 117.673 73.9778 117.402 75.5664C116.64 75.2994 115.82 75.2082 114.941 75.293C114.941 76.8425 114.941 78.3919 114.941 79.9414C114.242 79.8588 113.603 79.9502 113.027 80.2149C113.027 83.4051 113.027 86.595 113.027 89.7852C109.837 89.7852 106.647 89.7852 103.457 89.7852C103.457 88.1446 103.457 86.5039 103.457 84.8633C101.907 84.8633 100.358 84.8633 98.8086 84.8633C98.8086 83.2227 98.8086 81.582 98.8086 79.9414C102.637 79.9414 106.465 79.9414 110.293 79.9414C110.293 78.4832 110.293 77.0247 110.293 75.5664C109.879 75.2903 109.241 75.1992 108.379 75.293C108.467 73.7819 108.376 72.3236 108.105 70.918Z" fill="#274603"/>
<path opacity="0.907" fill-rule="evenodd" clip-rule="evenodd" d="M122.051 70.6445C123.691 70.6445 125.332 70.6445 126.973 70.6445C126.973 72.2852 126.973 73.9258 126.973 75.5664C125.332 75.5664 123.691 75.5664 122.051 75.5664C122.051 73.9258 122.051 72.2852 122.051 70.6445Z" fill="#274603"/>
<path opacity="0.959" fill-rule="evenodd" clip-rule="evenodd" d="M131.348 70.6445C132.988 70.6445 134.629 70.6445 136.27 70.6445C136.27 72.194 136.27 73.7435 136.27 75.293C137.819 75.293 139.368 75.293 140.918 75.293C140.918 76.9336 140.918 78.5742 140.918 80.2148C137.728 80.2148 134.538 80.2148 131.348 80.2148C131.348 77.0247 131.348 73.8346 131.348 70.6445Z" fill="#274603"/>
<path opacity="0.907" fill-rule="evenodd" clip-rule="evenodd" d="M164.16 70.6445C165.801 70.6445 167.441 70.6445 169.082 70.6445C169.082 72.2852 169.082 73.9258 169.082 75.5664C167.441 75.5664 165.801 75.5664 164.16 75.5664C164.16 73.9258 164.16 72.2852 164.16 70.6445Z" fill="#274603"/>
<path opacity="0.671" fill-rule="evenodd" clip-rule="evenodd" d="M108.105 70.918C108.376 72.3236 108.467 73.7819 108.379 75.293C109.241 75.1992 109.879 75.2903 110.293 75.5664C109.564 75.5664 108.835 75.5664 108.105 75.5664C108.105 74.0169 108.105 72.4675 108.105 70.918Z" fill="#274603"/>
<path opacity="0.904" fill-rule="evenodd" clip-rule="evenodd" d="M150.215 75.5664C149.945 76.972 149.854 78.4304 149.941 79.9414C148.43 79.8536 146.972 79.9447 145.566 80.2148C145.296 78.6262 145.205 76.9855 145.293 75.293C146.986 75.2047 148.626 75.2958 150.215 75.5664Z" fill="#274603"/>
<path opacity="0.937" fill-rule="evenodd" clip-rule="evenodd" d="M117.402 75.5664C116.673 75.5664 115.944 75.5664 115.215 75.5664C115.215 77.1159 115.215 78.6653 115.215 80.2148C114.486 80.2148 113.757 80.2148 113.027 80.2148C113.603 79.9502 114.242 79.8588 114.941 79.9414C114.941 78.3918 114.941 76.8425 114.941 75.293C115.82 75.2082 116.64 75.2993 117.402 75.5664Z" fill="#274603"/>
<path opacity="0.903" fill-rule="evenodd" clip-rule="evenodd" d="M94.4336 89.5117C94.2512 89.5117 94.1602 89.6028 94.1602 89.7852C92.6106 89.7852 91.0613 89.7852 89.5117 89.7852C89.5117 86.5039 89.5117 83.2227 89.5117 79.9414C91.1523 79.9414 92.793 79.9414 94.4336 79.9414C94.4336 83.1316 94.4336 86.3215 94.4336 89.5117Z" fill="#274603"/>
<path opacity="0.921" fill-rule="evenodd" clip-rule="evenodd" d="M122.324 89.5117C122.054 88.0146 121.963 86.4651 122.051 84.8633C122.051 83.2227 122.051 81.582 122.051 79.9414C123.691 79.9414 125.332 79.9414 126.973 79.9414C126.973 81.582 126.973 83.2227 126.973 84.8633C125.423 84.8633 123.874 84.8633 122.324 84.8633C122.324 86.4129 122.324 87.9621 122.324 89.5117Z" fill="#274603"/>
<path opacity="0.937" fill-rule="evenodd" clip-rule="evenodd" d="M150.215 75.5664C150.215 77.1159 150.215 78.6653 150.215 80.2148C148.665 80.2148 147.116 80.2148 145.566 80.2148C146.972 79.9447 148.43 79.8536 149.941 79.9414C149.854 78.4304 149.945 76.972 150.215 75.5664Z" fill="#274603"/>
<path opacity="0.948" fill-rule="evenodd" clip-rule="evenodd" d="M122.051 84.8633C121.963 86.4651 122.054 88.0146 122.324 89.5117C120.736 89.7824 119.095 89.8735 117.402 89.7852C117.402 88.1445 117.402 86.5039 117.402 84.8633C118.952 84.8633 120.501 84.8633 122.051 84.8633Z" fill="#274603"/>
<path opacity="0.961" fill-rule="evenodd" clip-rule="evenodd" d="M157.051 94.1602C155.645 94.4303 154.187 94.5214 152.676 94.4336C152.585 94.4336 152.493 94.4336 152.402 94.4336C149.303 94.4336 146.204 94.4336 143.105 94.4336C143.105 91.2434 143.105 88.0535 143.105 84.8633C146.296 84.8633 149.486 84.8633 152.676 84.8633C152.676 87.9621 152.676 91.0613 152.676 94.1602C154.134 94.1602 155.593 94.1602 157.051 94.1602Z" fill="#274603"/>
<path opacity="0.937" fill-rule="evenodd" clip-rule="evenodd" d="M157.324 89.5117C160.423 89.5117 163.522 89.5117 166.621 89.5117C166.709 91.2043 166.618 92.8449 166.348 94.4336C166.348 92.884 166.348 91.3347 166.348 89.7852C163.291 89.8748 160.283 89.7838 157.324 89.5117Z" fill="#274603"/>
<path opacity="0.949" fill-rule="evenodd" clip-rule="evenodd" d="M61.3477 89.5117C69.1862 89.5117 77.0247 89.5117 84.8633 89.5117C84.8633 91.1523 84.8633 92.793 84.8633 94.4336C77.0247 94.4336 69.1862 94.4336 61.3477 94.4336C61.3477 92.793 61.3477 91.1523 61.3477 89.5117Z" fill="#274603"/>
<path opacity="0.871" fill-rule="evenodd" clip-rule="evenodd" d="M94.4336 89.5117C95.8918 89.5117 97.3504 89.5117 98.8086 89.5117C97.4031 89.7819 95.9446 89.8729 94.4336 89.7852C94.5214 91.2962 94.4303 92.7547 94.1602 94.1602C94.1602 92.7019 94.1602 91.2434 94.1602 89.7852C94.1602 89.6028 94.2512 89.5117 94.4336 89.5117Z" fill="#274603"/>
<path opacity="0.907" fill-rule="evenodd" clip-rule="evenodd" d="M98.8086 89.5117C99.0793 91.1004 99.1704 92.741 99.082 94.4336C97.3895 94.5219 95.7488 94.4309 94.1602 94.1602C94.4303 92.7547 94.5214 91.2962 94.4336 89.7852C95.9446 89.8729 97.4031 89.7819 98.8086 89.5117Z" fill="#274603"/>
<path opacity="0.957" fill-rule="evenodd" clip-rule="evenodd" d="M157.324 89.5117C160.283 89.7838 163.291 89.8748 166.348 89.7852C166.348 91.3347 166.348 92.884 166.348 94.4336C164.889 94.4336 163.431 94.4336 161.973 94.4336C161.973 95.9832 161.973 97.5325 161.973 99.082C158.874 99.082 155.775 99.082 152.676 99.082C152.676 97.5325 152.676 95.9832 152.676 94.4336C154.187 94.5214 155.645 94.4303 157.051 94.1602C156.963 92.5584 157.054 91.0088 157.324 89.5117Z" fill="#274603"/>
<path opacity="0.737" fill-rule="evenodd" clip-rule="evenodd" d="M178.105 89.5117C176.7 89.7819 175.241 89.8729 173.73 89.7852C173.821 96.6681 173.73 103.504 173.457 110.293C173.457 103.366 173.457 96.4387 173.457 89.5117C175.007 89.5117 176.556 89.5117 178.105 89.5117Z" fill="#274603"/>
<path opacity="0.981" fill-rule="evenodd" clip-rule="evenodd" d="M178.105 89.5117C178.379 100.311 178.47 111.158 178.379 122.051C176.829 122.051 175.28 122.051 173.73 122.051C173.82 119.722 173.729 117.443 173.457 115.215C167.259 115.215 161.061 115.215 154.863 115.215C154.863 112.025 154.863 108.835 154.863 105.645C158.053 105.645 161.243 105.645 164.434 105.645C164.434 107.194 164.434 108.743 164.434 110.293C167.441 110.293 170.449 110.293 173.457 110.293C173.73 103.504 173.821 96.6681 173.73 89.7852C175.241 89.8729 176.7 89.7819 178.105 89.5117Z" fill="#274603"/>
<path opacity="0.965" fill-rule="evenodd" clip-rule="evenodd" d="M136.27 96.6211C135.999 98.0266 135.908 99.4851 135.996 100.996C134.447 100.996 132.897 100.996 131.348 100.996C131.348 102.546 131.348 104.095 131.348 105.645C129.798 105.645 128.249 105.645 126.699 105.645C126.699 100.996 126.699 96.3477 126.699 91.6992C128.34 91.6992 129.98 91.6992 131.621 91.6992C131.621 93.2488 131.621 94.7981 131.621 96.3477C133.223 96.2596 134.772 96.3507 136.27 96.6211Z" fill="#274603"/>
<path opacity="0.604" fill-rule="evenodd" clip-rule="evenodd" d="M117.402 94.1602C115.997 94.4303 114.538 94.5214 113.027 94.4336C113.117 97.4904 113.026 100.498 112.754 103.457C112.754 100.358 112.754 97.259 112.754 94.1602C114.303 94.1602 115.853 94.1602 117.402 94.1602Z" fill="#274603"/>
<path opacity="0.988" fill-rule="evenodd" clip-rule="evenodd" d="M117.402 94.1602C117.673 95.6572 117.764 97.2068 117.676 98.8086C119.081 99.0787 120.54 99.1698 122.051 99.082C121.963 100.593 122.054 102.052 122.324 103.457C120.827 103.727 119.278 103.819 117.676 103.73C117.676 105.28 117.676 106.829 117.676 108.379C116.126 108.379 114.577 108.379 113.027 108.379C113.027 111.478 113.027 114.577 113.027 117.676C111.478 117.676 109.928 117.676 108.379 117.676C108.379 119.134 108.379 120.593 108.379 122.051C106.829 122.051 105.28 122.051 103.73 122.051C103.821 117.446 103.73 112.888 103.457 108.379C101.855 108.467 100.306 108.376 98.8086 108.105C99.0807 105.147 99.1717 102.139 99.082 99.082C102.139 99.1717 105.147 99.0807 108.105 98.8086C108.376 100.306 108.467 101.855 108.379 103.457C109.837 103.457 111.296 103.457 112.754 103.457C113.026 100.498 113.117 97.4904 113.027 94.4336C114.538 94.5214 115.997 94.4303 117.402 94.1602Z" fill="#274603"/>
<path opacity="0.802" fill-rule="evenodd" clip-rule="evenodd" d="M61.6211 98.8086C64.72 98.8086 67.819 98.8086 70.918 98.8086C70.918 101.907 70.918 105.007 70.918 108.105C70.646 105.147 70.5549 102.139 70.6445 99.082C67.5877 99.1717 64.5799 99.0807 61.6211 98.8086Z" fill="#274603"/>
<path opacity="0.802" fill-rule="evenodd" clip-rule="evenodd" d="M108.105 98.8086C105.147 99.0807 102.139 99.1717 99.082 99.082C99.1717 102.139 99.0807 105.147 98.8086 108.105C98.8086 105.007 98.8086 101.907 98.8086 98.8086C101.907 98.8086 105.007 98.8086 108.105 98.8086Z" fill="#274603"/>
<path opacity="0.993" fill-rule="evenodd" clip-rule="evenodd" d="M61.6211 98.8086C64.5798 99.0807 67.5876 99.1717 70.6445 99.082C70.5548 102.139 70.646 105.147 70.9179 108.105C69.4208 108.376 67.8713 108.467 66.2695 108.379C66.2695 109.928 66.2695 111.478 66.2695 113.027C64.6289 113.027 62.9883 113.027 61.3476 113.027C61.2574 108.24 61.3485 103.501 61.6211 98.8086Z" fill="#274603"/>
<path opacity="0.975" fill-rule="evenodd" clip-rule="evenodd" d="M75.293 98.8086C78.4832 98.8086 81.6731 98.8086 84.8633 98.8086C84.8633 100.449 84.8633 102.09 84.8633 103.73C81.6731 103.73 78.4832 103.73 75.293 103.73C75.293 102.09 75.293 100.449 75.293 98.8086Z" fill="#274603"/>
<path opacity="0.937" fill-rule="evenodd" clip-rule="evenodd" d="M94.4336 99.082C92.884 99.082 91.3347 99.082 89.7852 99.082C89.8729 100.593 89.7819 102.052 89.5117 103.457C89.5117 101.907 89.5117 100.358 89.5117 98.8086C91.2043 98.7203 92.8449 98.8113 94.4336 99.082Z" fill="#274603"/>
<path opacity="0.949" fill-rule="evenodd" clip-rule="evenodd" d="M94.4336 99.082C94.4336 100.632 94.4336 102.181 94.4336 103.73C92.741 103.819 91.1004 103.728 89.5117 103.457C89.7819 102.052 89.8729 100.593 89.7852 99.082C91.3347 99.082 92.884 99.082 94.4336 99.082Z" fill="#274603"/>
<path opacity="0.537" fill-rule="evenodd" clip-rule="evenodd" d="M117.676 98.8086C119.225 98.8086 120.775 98.8086 122.324 98.8086C122.324 100.358 122.324 101.907 122.324 103.457C122.054 102.052 121.963 100.593 122.051 99.082C120.54 99.1698 119.081 99.0787 117.676 98.8086Z" fill="#274603"/>
<path opacity="0.671" fill-rule="evenodd" clip-rule="evenodd" d="M152.402 94.4336C152.493 94.4336 152.585 94.4336 152.676 94.4336C152.676 95.9832 152.676 97.5325 152.676 99.082C149.577 99.082 146.478 99.082 143.379 99.082C143.469 102.139 143.378 105.147 143.105 108.105C143.105 105.007 143.105 101.907 143.105 98.8086C146.204 98.8086 149.303 98.8086 152.402 98.8086C152.402 97.3504 152.402 95.8918 152.402 94.4336Z" fill="#274603"/>
<path opacity="0.978" fill-rule="evenodd" clip-rule="evenodd" d="M152.676 99.082C152.676 100.632 152.676 102.181 152.676 103.73C151.126 103.73 149.577 103.73 148.027 103.73C148.027 105.28 148.027 106.829 148.027 108.379C146.335 108.467 144.694 108.376 143.105 108.105C143.378 105.147 143.469 102.139 143.379 99.082C146.478 99.082 149.577 99.082 152.676 99.082Z" fill="#274603"/>
<path opacity="0.737" fill-rule="evenodd" clip-rule="evenodd" d="M136.27 96.6211C136.27 98.1707 136.27 99.72 136.27 101.27C134.72 101.27 133.171 101.27 131.621 101.27C131.621 102.819 131.621 104.368 131.621 105.918C129.929 106.006 128.288 105.915 126.699 105.645C128.249 105.645 129.798 105.645 131.348 105.645C131.348 104.095 131.348 102.546 131.348 100.996C132.897 100.996 134.447 100.996 135.996 100.996C135.908 99.4851 135.999 98.0266 136.27 96.6211Z" fill="#274603"/>
<path opacity="0.942" fill-rule="evenodd" clip-rule="evenodd" d="M89.7852 113.027C88.1445 113.027 86.5039 113.027 84.8633 113.027C81.7644 113.027 78.6653 113.027 75.5664 113.027C75.5664 112.845 75.4753 112.754 75.293 112.754C75.293 111.204 75.293 109.655 75.293 108.105C78.4832 108.105 81.6731 108.105 84.8633 108.105C84.8633 109.655 84.8633 111.204 84.8633 112.754C86.5559 112.666 88.1965 112.757 89.7852 113.027Z" fill="#274603"/>
<path opacity="0.737" fill-rule="evenodd" clip-rule="evenodd" d="M103.457 108.379C103.73 112.888 103.821 117.446 103.73 122.051C105.28 122.051 106.829 122.051 108.379 122.051C106.79 122.321 105.15 122.413 103.457 122.324C103.457 117.676 103.457 113.027 103.457 108.379Z" fill="#274603"/>
<path opacity="0.922" fill-rule="evenodd" clip-rule="evenodd" d="M126.699 110.293C126.699 111.843 126.699 113.392 126.699 114.941C125.15 114.941 123.6 114.941 122.051 114.941C122.051 113.392 122.051 111.843 122.051 110.293C123.6 110.293 125.15 110.293 126.699 110.293Z" fill="#274603"/>
<path opacity="0.964" fill-rule="evenodd" clip-rule="evenodd" d="M133.809 110.293C138.548 110.293 143.288 110.293 148.027 110.293C148.027 113.483 148.027 116.673 148.027 119.863C146.478 119.863 144.928 119.863 143.379 119.863C143.379 121.504 143.379 123.145 143.379 124.785C141.829 124.785 140.28 124.785 138.73 124.785C138.73 126.335 138.73 127.884 138.73 129.434C137.09 129.434 135.449 129.434 133.809 129.434C133.809 127.884 133.809 126.335 133.809 124.785C132.259 124.785 130.71 124.785 129.16 124.785C129.16 123.145 129.16 121.504 129.16 119.863C130.71 119.863 132.259 119.863 133.809 119.863C133.809 116.673 133.809 113.483 133.809 110.293Z" fill="#274603"/>
<path opacity="0.926" fill-rule="evenodd" clip-rule="evenodd" d="M70.6445 113.027C72.194 113.027 73.7435 113.027 75.293 113.027C75.2051 114.538 75.2962 115.997 75.5664 117.402C73.9777 117.673 72.3371 117.764 70.6445 117.676C70.6445 116.126 70.6445 114.577 70.6445 113.027Z" fill="#274603"/>
<path opacity="0.871" fill-rule="evenodd" clip-rule="evenodd" d="M70.6445 113.027C72.1417 112.757 73.6912 112.666 75.293 112.754C75.4753 112.754 75.5664 112.845 75.5664 113.027C75.5664 114.486 75.5664 115.944 75.5664 117.402C75.2962 115.997 75.2051 114.538 75.293 113.027C73.7435 113.027 72.194 113.027 70.6445 113.027Z" fill="#274603"/>
<path opacity="0.921" fill-rule="evenodd" clip-rule="evenodd" d="M84.8633 113.027C86.5039 113.027 88.1445 113.027 89.7852 113.027C89.7852 114.486 89.7852 115.944 89.7852 117.402C89.6028 117.402 89.5117 117.493 89.5117 117.676C87.9621 117.676 86.4129 117.676 84.8633 117.676C84.8633 116.126 84.8633 114.577 84.8633 113.027Z" fill="#274603"/>
<path opacity="0.948" fill-rule="evenodd" clip-rule="evenodd" d="M122.051 114.941C122.051 116.582 122.051 118.223 122.051 119.863C120.501 119.863 118.952 119.863 117.402 119.863C117.402 118.223 117.402 116.582 117.402 114.941C118.952 114.941 120.501 114.941 122.051 114.941Z" fill="#274603"/>
<path opacity="0.937" fill-rule="evenodd" clip-rule="evenodd" d="M126.699 110.293C126.97 111.882 127.061 113.522 126.973 115.215C125.423 115.215 123.874 115.215 122.324 115.215C122.412 116.817 122.321 118.366 122.051 119.863C122.051 118.223 122.051 116.582 122.051 114.941C123.6 114.941 125.15 114.941 126.699 114.941C126.699 113.392 126.699 111.843 126.699 110.293Z" fill="#274603"/>
<path opacity="0.937" fill-rule="evenodd" clip-rule="evenodd" d="M89.7852 117.402C91.2434 117.402 92.7019 117.402 94.1602 117.402C92.7547 117.672 91.2962 117.764 89.7852 117.676C89.7852 119.134 89.7852 120.593 89.7852 122.051C91.2962 121.963 92.7547 122.054 94.1602 122.324C92.6106 122.324 91.0613 122.324 89.5117 122.324C89.5117 120.775 89.5117 119.225 89.5117 117.676C89.5117 117.493 89.6028 117.402 89.7852 117.402Z" fill="#274603"/>
<path opacity="0.989" fill-rule="evenodd" clip-rule="evenodd" d="M70.918 122.324C70.6478 123.73 70.5566 125.188 70.6445 126.699C69.1335 126.611 67.6751 126.702 66.2695 126.973C65.9968 133.032 65.9056 139.139 65.9961 145.293C64.485 145.205 63.0267 145.296 61.6211 145.566C61.3482 137.775 61.2571 129.936 61.3477 122.051C64.5866 121.961 67.7767 122.052 70.918 122.324Z" fill="#274603"/>
<path opacity="0.922" fill-rule="evenodd" clip-rule="evenodd" d="M80.2148 122.324C79.9447 123.73 79.8536 125.188 79.9414 126.699C78.3918 126.699 76.8425 126.699 75.293 126.699C75.293 125.15 75.293 123.6 75.293 122.051C76.9855 121.962 78.6262 122.054 80.2148 122.324Z" fill="#274603"/>
<path opacity="0.926" fill-rule="evenodd" clip-rule="evenodd" d="M94.1602 117.402C94.4306 118.899 94.5216 120.449 94.4336 122.051C95.9832 122.051 97.5325 122.051 99.082 122.051C99.082 123.6 99.082 125.15 99.082 126.699C97.5325 126.699 95.9832 126.699 94.4336 126.699C94.5214 125.188 94.4303 123.73 94.1602 122.324C92.7547 122.054 91.2962 121.963 89.7852 122.051C89.7852 120.593 89.7852 119.134 89.7852 117.676C91.2962 117.764 92.7547 117.672 94.1602 117.402Z" fill="#274603"/>
<path opacity="0.946" fill-rule="evenodd" clip-rule="evenodd" d="M164.434 126.699C161.243 126.699 158.053 126.699 154.863 126.699C154.863 125.15 154.863 123.6 154.863 122.051C158.053 122.051 161.243 122.051 164.434 122.051C164.434 123.6 164.434 125.15 164.434 126.699Z" fill="#274603"/>
<path opacity="0.537" fill-rule="evenodd" clip-rule="evenodd" d="M173.457 115.215C173.729 117.443 173.82 119.722 173.73 122.051C175.28 122.051 176.829 122.051 178.379 122.051C176.79 122.321 175.15 122.413 173.457 122.324C173.457 119.954 173.457 117.585 173.457 115.215Z" fill="#274603"/>
<path opacity="0.604" fill-rule="evenodd" clip-rule="evenodd" d="M70.918 122.324C70.918 123.874 70.918 125.423 70.918 126.973C69.3685 126.973 67.819 126.973 66.2695 126.973C67.6751 126.703 69.1335 126.611 70.6445 126.699C70.5566 125.188 70.6478 123.73 70.918 122.324Z" fill="#274603"/>
<path opacity="0.573" fill-rule="evenodd" clip-rule="evenodd" d="M80.2148 122.324C80.2148 123.874 80.2148 125.423 80.2148 126.973C78.5223 127.061 76.8816 126.97 75.293 126.699C76.8425 126.699 78.3918 126.699 79.9414 126.699C79.8536 125.188 79.9447 123.73 80.2148 122.324Z" fill="#274603"/>
<path opacity="0.919" fill-rule="evenodd" clip-rule="evenodd" d="M94.1602 126.699C94.1602 126.882 94.2512 126.973 94.4336 126.973C94.4336 128.522 94.4336 130.072 94.4336 131.621C92.884 131.621 91.3347 131.621 89.7852 131.621C89.7852 131.439 89.6941 131.348 89.5117 131.348C89.5117 129.798 89.5117 128.249 89.5117 126.699C91.0613 126.699 92.6106 126.699 94.1602 126.699Z" fill="#274603"/>
<path opacity="0.575" fill-rule="evenodd" clip-rule="evenodd" d="M94.1602 122.324C94.4303 123.73 94.5214 125.188 94.4336 126.699C95.9832 126.699 97.5325 126.699 99.082 126.699C97.585 126.97 96.0354 127.061 94.4336 126.973C94.2512 126.973 94.1602 126.882 94.1602 126.699C94.1602 125.241 94.1602 123.782 94.1602 122.324Z" fill="#274603"/>
<path opacity="0.974" fill-rule="evenodd" clip-rule="evenodd" d="M108.105 136.27C105.147 135.997 102.139 135.906 99.082 135.996C99.1698 134.485 99.0787 133.027 98.8086 131.621C100.306 131.351 101.855 131.26 103.457 131.348C103.457 129.798 103.457 128.249 103.457 126.699C106.647 126.699 109.837 126.699 113.027 126.699C113.027 128.34 113.027 129.98 113.027 131.621C111.478 131.621 109.928 131.621 108.379 131.621C108.467 133.223 108.376 134.772 108.105 136.27Z" fill="#274603"/>
<path opacity="0.918" fill-rule="evenodd" clip-rule="evenodd" d="M114.941 126.699C116.582 126.699 118.223 126.699 119.863 126.699C119.863 128.34 119.863 129.98 119.863 131.621C118.223 131.621 116.582 131.621 114.941 131.621C114.941 129.98 114.941 128.34 114.941 126.699Z" fill="#274603"/>
<path opacity="0.919" fill-rule="evenodd" clip-rule="evenodd" d="M124.512 126.973C126.1 126.702 127.741 126.611 129.434 126.699C129.434 128.249 129.434 129.798 129.434 131.348C127.884 131.348 126.335 131.348 124.785 131.348C124.873 129.837 124.782 128.378 124.512 126.973Z" fill="#274603"/>
<path opacity="0.919" fill-rule="evenodd" clip-rule="evenodd" d="M164.434 126.699C165.983 126.699 167.532 126.699 169.082 126.699C169.17 128.392 169.079 130.032 168.809 131.621C167.403 131.351 165.945 131.26 164.434 131.348C164.434 129.798 164.434 128.249 164.434 126.699Z" fill="#274603"/>
<path opacity="0.737" fill-rule="evenodd" clip-rule="evenodd" d="M66.2695 126.973C66.2695 133.171 66.2695 139.368 66.2695 145.566C64.72 145.566 63.1706 145.566 61.6211 145.566C63.0267 145.296 64.485 145.205 65.9961 145.293C65.9056 139.139 65.9968 133.032 66.2695 126.973Z" fill="#274603"/>
<path opacity="0.671" fill-rule="evenodd" clip-rule="evenodd" d="M124.512 126.973C124.782 128.378 124.873 129.837 124.785 131.348C126.335 131.348 127.884 131.348 129.434 131.348C127.845 131.618 126.204 131.709 124.512 131.621C124.512 130.072 124.512 128.522 124.512 126.973Z" fill="#274603"/>
<path opacity="0.671" fill-rule="evenodd" clip-rule="evenodd" d="M154.863 126.699C158.053 126.699 161.243 126.699 164.434 126.699C164.434 128.249 164.434 129.798 164.434 131.348C165.945 131.26 167.403 131.351 168.809 131.621C167.259 131.621 165.71 131.621 164.16 131.621C164.16 130.072 164.16 128.522 164.16 126.973C161.012 127.062 157.913 126.971 154.863 126.699Z" fill="#274603"/>
<path opacity="0.671" fill-rule="evenodd" clip-rule="evenodd" d="M173.457 126.973C173.727 128.378 173.818 129.837 173.73 131.348C175.241 131.26 176.7 131.351 178.105 131.621C176.556 131.621 175.007 131.621 173.457 131.621C173.457 130.072 173.457 128.522 173.457 126.973Z" fill="#274603"/>
<path opacity="0.973" fill-rule="evenodd" clip-rule="evenodd" d="M89.5117 131.348C89.6941 131.348 89.7851 131.439 89.7851 131.621C89.7851 133.079 89.7851 134.538 89.7851 135.996C92.7929 135.996 95.8008 135.996 98.8086 135.996C98.8086 136.178 98.8996 136.27 99.082 136.27C99.082 137.819 99.082 139.368 99.082 140.918C97.5324 140.918 95.9831 140.918 94.4336 140.918C94.4336 142.376 94.4336 143.835 94.4336 145.293C95.9831 145.293 97.5324 145.293 99.082 145.293C99.082 146.843 99.082 148.392 99.082 149.941C99.1717 153.18 99.0806 156.37 98.8086 159.512C98.8086 156.413 98.8086 153.314 98.8086 150.215C95.8008 150.215 92.7929 150.215 89.7851 150.215C89.7851 151.764 89.7851 153.314 89.7851 154.863C88.1445 154.863 86.5039 154.863 84.8633 154.863C84.8633 150.215 84.8633 145.566 84.8633 140.918C81.7644 140.918 78.6652 140.918 75.5664 140.918C75.5664 142.376 75.5664 143.835 75.5664 145.293C77.1682 145.205 78.7177 145.296 80.2148 145.566C79.9447 146.972 79.8536 148.43 79.9414 149.941C76.8845 149.852 73.8767 149.943 70.9179 150.215C70.6452 143.973 70.5541 137.684 70.6445 131.348C76.9336 131.348 83.2226 131.348 89.5117 131.348Z" fill="#274603"/>
<path opacity="0.968" fill-rule="evenodd" clip-rule="evenodd" d="M149.941 131.348C153.223 131.348 156.504 131.348 159.785 131.348C159.785 132.897 159.785 134.447 159.785 135.996C162.884 135.996 165.983 135.996 169.082 135.996C169.082 137.637 169.082 139.277 169.082 140.918C167.532 140.918 165.983 140.918 164.434 140.918C164.434 144.017 164.434 147.116 164.434 150.215C162.884 150.215 161.335 150.215 159.785 150.215C159.785 151.764 159.785 153.314 159.785 154.863C158.145 154.863 156.504 154.863 154.863 154.863C154.863 150.215 154.863 145.566 154.863 140.918C153.223 140.918 151.582 140.918 149.941 140.918C149.941 137.728 149.941 134.538 149.941 131.348Z" fill="#274603"/>
<path opacity="0.937" fill-rule="evenodd" clip-rule="evenodd" d="M138.73 134.082C134.082 134.082 129.434 134.082 124.785 134.082C124.785 137.181 124.785 140.28 124.785 143.379C123.145 143.379 121.504 143.379 119.863 143.379C121.36 143.108 122.91 143.017 124.512 143.105C124.512 140.007 124.512 136.907 124.512 133.809C129.299 133.718 134.039 133.809 138.73 134.082Z" fill="#274603"/>
<path opacity="0.992" fill-rule="evenodd" clip-rule="evenodd" d="M138.73 134.082C138.73 137.09 138.73 140.098 138.73 143.105C140.28 143.105 141.829 143.105 143.379 143.105C143.379 146.296 143.379 149.486 143.379 152.676C138.639 152.676 133.9 152.676 129.16 152.676C129.16 149.577 129.16 146.478 129.16 143.379C127.702 143.379 126.243 143.379 124.785 143.379C124.785 140.28 124.785 137.181 124.785 134.082C129.434 134.082 134.082 134.082 138.73 134.082Z" fill="#274603"/>
<path opacity="0.737" fill-rule="evenodd" clip-rule="evenodd" d="M98.8086 131.621C99.0787 133.027 99.1698 134.485 99.082 135.996C102.139 135.906 105.147 135.997 108.105 136.27C105.098 136.27 102.09 136.27 99.082 136.27C98.8996 136.27 98.8086 136.178 98.8086 135.996C98.8086 134.538 98.8086 133.079 98.8086 131.621Z" fill="#274603"/>
<path opacity="0.987" fill-rule="evenodd" clip-rule="evenodd" d="M178.105 150.215C175.147 149.943 172.139 149.852 169.082 149.941C169.082 148.392 169.082 146.843 169.082 145.293C170.54 145.293 171.999 145.293 173.457 145.293C173.457 142.194 173.457 139.095 173.457 135.996C175.098 135.996 176.738 135.996 178.379 135.996C178.469 140.783 178.378 145.523 178.105 150.215Z" fill="#274603"/>
<path opacity="0.934" fill-rule="evenodd" clip-rule="evenodd" d="M110.293 138.73C111.843 138.73 113.392 138.73 114.941 138.73C114.852 141.787 114.943 144.795 115.215 147.754C113.626 148.025 111.986 148.116 110.293 148.027C110.293 144.928 110.293 141.829 110.293 138.73Z" fill="#274603"/>
<path opacity="0.937" fill-rule="evenodd" clip-rule="evenodd" d="M110.293 138.73C111.882 138.46 113.522 138.369 115.215 138.457C115.215 141.556 115.215 144.655 115.215 147.754C114.943 144.795 114.852 141.787 114.941 138.73C113.392 138.73 111.843 138.73 110.293 138.73Z" fill="#274603"/>
<path opacity="0.918" fill-rule="evenodd" clip-rule="evenodd" d="M119.863 143.379C121.504 143.379 123.145 143.379 124.785 143.379C124.785 144.928 124.785 146.478 124.785 148.027C123.145 148.027 121.504 148.027 119.863 148.027C119.863 146.478 119.863 144.928 119.863 143.379Z" fill="#274603"/>
<path opacity="0.937" fill-rule="evenodd" clip-rule="evenodd" d="M80.2148 145.566C80.2148 147.116 80.2148 148.665 80.2148 150.215C77.1159 150.215 74.0169 150.215 70.918 150.215C73.8767 149.943 76.8845 149.852 79.9414 149.941C79.8536 148.43 79.9447 146.972 80.2148 145.566Z" fill="#274603"/>
<path opacity="0.937" fill-rule="evenodd" clip-rule="evenodd" d="M169.082 145.293C169.082 146.843 169.082 148.392 169.082 149.941C172.139 149.852 175.147 149.943 178.105 150.215C175.007 150.215 171.907 150.215 168.809 150.215C168.72 148.522 168.811 146.882 169.082 145.293Z" fill="#274603"/>
<path opacity="0.948" fill-rule="evenodd" clip-rule="evenodd" d="M124.785 157.051C123.145 157.051 121.504 157.051 119.863 157.051C119.863 155.501 119.863 153.952 119.863 152.402C121.504 152.402 123.145 152.402 124.785 152.402C124.785 153.952 124.785 155.501 124.785 157.051Z" fill="#274603"/>
<path opacity="0.974" fill-rule="evenodd" clip-rule="evenodd" d="M62.7148 154.863C69.7337 154.818 76.7519 154.863 83.7695 155C84.0886 155.319 84.4075 155.638 84.7266 155.957C84.9089 162.975 84.9089 169.993 84.7266 177.012C84.4233 177.645 83.9218 178.055 83.2227 178.242C76.569 178.425 69.9154 178.425 63.2617 178.242C62.6198 178.148 62.1185 177.828 61.7578 177.285C61.3098 170.375 61.2187 163.448 61.4844 156.504C61.7042 155.78 62.1144 155.233 62.7148 154.863ZM66.2695 159.785C70.8268 159.785 75.3841 159.785 79.9414 159.785C79.9414 164.343 79.9414 168.9 79.9414 173.457C75.3841 173.457 70.8268 173.457 66.2695 173.457C66.2695 168.9 66.2695 164.343 66.2695 159.785Z" fill="#274603"/>
<path opacity="0.948" fill-rule="evenodd" clip-rule="evenodd" d="M168.809 154.863C170.449 154.863 172.09 154.863 173.73 154.863C173.73 156.504 173.73 158.145 173.73 159.785C172.09 159.785 170.449 159.785 168.809 159.785C168.809 158.145 168.809 156.504 168.809 154.863Z" fill="#274603"/>
<path opacity="0.937" fill-rule="evenodd" clip-rule="evenodd" d="M119.863 157.051C121.504 157.051 123.145 157.051 124.785 157.051C124.785 158.6 124.785 160.15 124.785 161.699C126.335 161.699 127.884 161.699 129.434 161.699C127.845 161.97 126.204 162.061 124.512 161.973C124.512 160.423 124.512 158.874 124.512 157.324C122.91 157.412 121.36 157.321 119.863 157.051Z" fill="#274603"/>
<path opacity="0.871" fill-rule="evenodd" clip-rule="evenodd" d="M98.8086 159.512C97.4031 159.782 95.9446 159.873 94.4336 159.785C94.5214 161.296 94.4303 162.755 94.1602 164.16C94.1602 162.611 94.1602 161.061 94.1602 159.512C95.7097 159.512 97.259 159.512 98.8086 159.512Z" fill="#274603"/>
<path opacity="0.871" fill-rule="evenodd" clip-rule="evenodd" d="M140.918 159.512C142.376 159.512 143.835 159.512 145.293 159.512C145.475 159.512 145.566 159.603 145.566 159.785C145.566 161.243 145.566 162.702 145.566 164.16C145.296 162.755 145.205 161.296 145.293 159.785C143.782 159.873 142.323 159.782 140.918 159.512Z" fill="#274603"/>
<path opacity="0.903" fill-rule="evenodd" clip-rule="evenodd" d="M145.566 159.785C145.566 159.603 145.475 159.512 145.293 159.512C145.293 157.962 145.293 156.413 145.293 154.863C146.934 154.863 148.574 154.863 150.215 154.863C150.215 156.413 150.215 157.962 150.215 159.512C151.764 159.512 153.314 159.512 154.863 159.512C154.863 161.152 154.863 162.793 154.863 164.434C153.223 164.434 151.582 164.434 149.941 164.434C149.941 162.884 149.941 161.335 149.941 159.785C148.483 159.785 147.025 159.785 145.566 159.785Z" fill="#274603"/>
<path opacity="0.937" fill-rule="evenodd" clip-rule="evenodd" d="M164.16 159.512C162.755 159.782 161.296 159.873 159.785 159.785C159.873 161.296 159.782 162.755 159.512 164.16C159.512 162.611 159.512 161.061 159.512 159.512C161.061 159.512 162.611 159.512 164.16 159.512Z" fill="#274603"/>
<path opacity="0.904" fill-rule="evenodd" clip-rule="evenodd" d="M164.16 159.512C164.431 161.1 164.522 162.741 164.434 164.434C162.741 164.522 161.1 164.431 159.512 164.16C159.782 162.755 159.873 161.296 159.785 159.785C161.296 159.873 162.755 159.782 164.16 159.512Z" fill="#274603"/>
<path opacity="0.907" fill-rule="evenodd" clip-rule="evenodd" d="M70.6445 164.16C72.2852 164.16 73.9258 164.16 75.5664 164.16C75.5664 165.801 75.5664 167.441 75.5664 169.082C73.9258 169.082 72.2852 169.082 70.6445 169.082C70.6445 167.441 70.6445 165.801 70.6445 164.16Z" fill="#274603"/>
<path opacity="0.871" fill-rule="evenodd" clip-rule="evenodd" d="M178.105 164.16C175.147 164.432 172.139 164.523 169.082 164.434C169.082 165.983 169.082 167.532 169.082 169.082C168.811 167.493 168.72 165.853 168.809 164.16C171.907 164.16 175.007 164.16 178.105 164.16Z" fill="#274603"/>
<path opacity="0.937" fill-rule="evenodd" clip-rule="evenodd" d="M94.1602 164.16C92.7547 164.43 91.2962 164.521 89.7852 164.434C89.8754 169.039 89.7843 173.596 89.5117 178.105C89.5117 173.457 89.5117 168.809 89.5117 164.16C91.0613 164.16 92.6106 164.16 94.1602 164.16Z" fill="#274603"/>
<path opacity="0.986" fill-rule="evenodd" clip-rule="evenodd" d="M99.082 149.941C100.632 149.941 102.181 149.941 103.73 149.941C103.73 151.582 103.73 153.223 103.73 154.863C105.28 154.863 106.829 154.863 108.379 154.863C108.379 156.504 108.379 158.145 108.379 159.785C105.28 159.785 102.181 159.785 99.082 159.785C99.082 161.335 99.082 162.884 99.082 164.434C97.5325 164.434 95.9832 164.434 94.4336 164.434C94.4336 165.892 94.4336 167.35 94.4336 168.809C99.082 168.809 103.73 168.809 108.379 168.809C108.379 170.449 108.379 172.09 108.379 173.73C107.559 173.73 106.738 173.73 105.918 173.73C105.918 175.28 105.918 176.829 105.918 178.379C104.277 178.379 102.637 178.379 100.996 178.379C100.996 176.829 100.996 175.28 100.996 173.73C98.8086 173.73 96.6211 173.73 94.4336 173.73C94.4336 175.28 94.4336 176.829 94.4336 178.379C92.741 178.467 91.1004 178.376 89.5117 178.105C89.7843 173.596 89.8754 169.039 89.7852 164.434C91.2962 164.521 92.7547 164.43 94.1602 164.16C94.4303 162.755 94.5214 161.296 94.4336 159.785C95.9446 159.873 97.4031 159.782 98.8086 159.512C99.0807 156.37 99.1717 153.18 99.082 149.941Z" fill="#274603"/>
<path opacity="0.575" fill-rule="evenodd" clip-rule="evenodd" d="M117.402 164.16C115.997 164.43 114.538 164.521 113.027 164.434C113.027 165.983 113.027 167.532 113.027 169.082C112.757 167.493 112.666 165.853 112.754 164.16C114.303 164.16 115.853 164.16 117.402 164.16Z" fill="#274603"/>
<path opacity="0.926" fill-rule="evenodd" clip-rule="evenodd" d="M117.402 164.16C117.673 165.657 117.764 167.207 117.676 168.809C117.676 168.9 117.676 168.991 117.676 169.082C117.764 170.593 117.673 172.052 117.402 173.457C117.402 171.999 117.402 170.54 117.402 169.082C115.944 169.082 114.486 169.082 113.027 169.082C113.027 167.532 113.027 165.983 113.027 164.434C114.538 164.521 115.997 164.43 117.402 164.16Z" fill="#274603"/>
<path opacity="0.988" fill-rule="evenodd" clip-rule="evenodd" d="M178.105 164.16C178.378 168.852 178.469 173.592 178.379 178.379C176.738 178.379 175.098 178.379 173.457 178.379C173.457 175.28 173.457 172.181 173.457 169.082C171.999 169.082 170.54 169.082 169.082 169.082C169.082 167.532 169.082 165.983 169.082 164.434C172.139 164.523 175.147 164.432 178.105 164.16Z" fill="#274603"/>
<path opacity="0.954" fill-rule="evenodd" clip-rule="evenodd" d="M49.8633 166.348C51.5039 166.348 53.1445 166.348 54.7852 166.348C54.7852 172.546 54.7852 178.743 54.7852 184.941C60.9831 184.941 67.181 184.941 73.3789 184.941C73.3789 186.582 73.3789 188.223 73.3789 189.863C65.905 189.863 58.431 189.863 50.957 189.863C50.6836 189.407 50.319 189.043 49.8633 188.77C49.8633 181.296 49.8633 173.822 49.8633 166.348Z" fill="#274603"/>
<path opacity="0.955" fill-rule="evenodd" clip-rule="evenodd" d="M189.863 166.348C189.863 173.822 189.863 181.296 189.863 188.77C189.407 189.043 189.043 189.407 188.77 189.863C182.845 189.863 176.921 189.863 170.996 189.863C170.996 188.223 170.996 186.582 170.996 184.941C175.645 184.941 180.293 184.941 184.941 184.941C184.941 178.743 184.941 172.546 184.941 166.348C186.582 166.348 188.223 166.348 189.863 166.348Z" fill="#274603"/>
<path opacity="0.794" fill-rule="evenodd" clip-rule="evenodd" d="M117.676 169.082C117.676 168.991 117.676 168.9 117.676 168.809C120.775 168.809 123.874 168.809 126.973 168.809C127.061 170.501 126.97 172.142 126.699 173.73C126.699 172.181 126.699 170.632 126.699 169.082C123.691 169.082 120.684 169.082 117.676 169.082Z" fill="#274603"/>
<path opacity="0.804" fill-rule="evenodd" clip-rule="evenodd" d="M140.645 169.082C143.786 168.81 146.976 168.719 150.215 168.809C150.215 170.358 150.215 171.907 150.215 173.457C149.945 172.051 149.854 170.593 149.941 169.082C146.843 169.082 143.743 169.082 140.645 169.082Z" fill="#274603"/>
<path fill-rule="evenodd" clip-rule="evenodd" d="M117.676 169.082C120.684 169.082 123.691 169.082 126.699 169.082C126.699 170.632 126.699 172.181 126.699 173.73C125.241 173.73 123.782 173.73 122.324 173.73C122.324 175.28 122.324 176.829 122.324 178.379C119.085 178.469 115.895 178.378 112.754 178.105C113.024 176.7 113.115 175.241 113.027 173.73C114.538 173.818 115.997 173.727 117.402 173.457C117.672 172.052 117.764 170.593 117.676 169.082Z" fill="#274603"/>
<path fill-rule="evenodd" clip-rule="evenodd" d="M131.621 168.809C133.027 169.079 134.485 169.17 135.996 169.082C135.996 170.632 135.996 172.181 135.996 173.73C134.447 173.73 132.897 173.73 131.348 173.73C131.259 172.038 131.35 170.397 131.621 168.809Z" fill="#274603"/>
<path opacity="0.737" fill-rule="evenodd" clip-rule="evenodd" d="M131.621 168.809C133.171 168.809 134.72 168.809 136.27 168.809C136.27 170.358 136.27 171.907 136.27 173.457C137.728 173.457 139.186 173.457 140.645 173.457C139.147 173.727 137.598 173.819 135.996 173.73C135.996 172.181 135.996 170.632 135.996 169.082C134.485 169.17 133.027 169.079 131.621 168.809Z" fill="#274603"/>
<path opacity="0.937" fill-rule="evenodd" clip-rule="evenodd" d="M164.434 169.082C162.884 169.082 161.335 169.082 159.785 169.082C159.873 170.593 159.782 172.052 159.512 173.457C159.512 171.907 159.512 170.358 159.512 168.809C161.204 168.72 162.845 168.811 164.434 169.082Z" fill="#274603"/>
<path opacity="0.962" fill-rule="evenodd" clip-rule="evenodd" d="M140.645 169.082C143.743 169.082 146.843 169.082 149.941 169.082C149.854 170.593 149.945 172.052 150.215 173.457C153.314 173.457 156.413 173.457 159.512 173.457C159.782 172.052 159.873 170.593 159.785 169.082C161.335 169.082 162.884 169.082 164.434 169.082C164.434 172.181 164.434 175.28 164.434 178.379C159.603 178.379 154.772 178.379 149.941 178.379C149.941 176.829 149.941 175.28 149.941 173.73C148.483 173.73 147.025 173.73 145.566 173.73C145.566 175.28 145.566 176.829 145.566 178.379C142.376 178.379 139.186 178.379 135.996 178.379C135.996 176.829 135.996 175.28 135.996 173.73C137.598 173.819 139.147 173.727 140.645 173.457C140.645 171.999 140.645 170.54 140.645 169.082Z" fill="#274603"/>
<path opacity="0.604" fill-rule="evenodd" clip-rule="evenodd" d="M117.402 173.457C115.997 173.727 114.538 173.818 113.027 173.73C113.115 175.241 113.024 176.7 112.754 178.105C112.754 176.556 112.754 175.007 112.754 173.457C114.303 173.457 115.853 173.457 117.402 173.457Z" fill="#274603"/>
</g>
<defs>
<clipPath id="clip0_38_1665">
<rect width="140" height="140" fill="white" transform="translate(50 50)"/>
</clipPath>
</defs>
</svg>
