<svg width="240" height="240" viewBox="0 0 240 240" fill="none" xmlns="http://www.w3.org/2000/svg">
<g clip-path="url(#clip0_91_7142)">
<path fill-rule="evenodd" clip-rule="evenodd" d="M122.598 49.8633C136.361 49.8633 150.124 49.8633 163.887 49.8633C164.318 50.0391 164.682 50.3125 164.98 50.6836C165.147 50.9272 165.238 51.2007 165.254 51.5039C142.887 73.734 120.556 96.0193 98.2617 118.359C98.0993 118.486 97.9169 118.532 97.7148 118.496C95.6999 116.8 93.9225 114.886 92.3828 112.754C91.3473 110.066 91.6207 107.514 93.2031 105.098C105.791 92.5556 118.323 79.9775 130.801 67.3633C131.081 67.2548 131.127 67.0726 130.937 66.8164C129.454 65.1948 127.859 63.7364 126.152 62.4414C123.864 60.4728 121.814 58.2853 120 55.8789C119.313 53.1559 120.179 51.1507 122.598 49.8633Z" fill="#274603"/>
<path opacity="0.01" fill-rule="evenodd" clip-rule="evenodd" d="M164.98 50.6836C165.345 50.6836 165.527 50.8659 165.527 51.2305C165.527 51.4128 165.436 51.5039 165.254 51.5039C165.238 51.2007 165.147 50.9272 164.98 50.6836Z" fill="#274603"/>
<path fill-rule="evenodd" clip-rule="evenodd" d="M165.527 51.2305C165.908 51.7152 166.227 52.262 166.484 52.8711C166.667 66.4518 166.667 80.0325 166.484 93.6133C166.294 94.1831 165.975 94.6389 165.527 94.9805C165.545 94.8607 165.5 94.7694 165.391 94.707C165.107 94.9105 164.97 95.1839 164.98 95.5273C164.577 96.0496 164.03 96.3684 163.34 96.4844C162.22 96.6941 161.127 96.603 160.059 96.2109C158.554 95.025 157.187 93.7035 155.957 92.2461C154.103 89.976 152.007 87.7431 149.668 85.5469C149.506 85.42 149.323 85.3743 149.121 85.4102C136.416 97.9787 123.746 110.603 111.113 123.281C108.197 124.922 105.28 124.922 102.363 123.281C100.758 121.722 99.2089 120.127 97.7148 118.496C97.9169 118.532 98.0993 118.486 98.2617 118.359C120.556 96.0193 142.887 73.734 165.254 51.5039C165.436 51.5039 165.527 51.4128 165.527 51.2305Z" fill="#274603"/>
<path opacity="0.945" fill-rule="evenodd" clip-rule="evenodd" d="M126.152 62.4414C127.859 63.7364 129.454 65.1948 130.938 66.8164C131.127 67.0726 131.081 67.2548 130.801 67.3633C129.251 65.7227 127.702 64.082 126.152 62.4414Z" fill="#274603"/>
<path opacity="0.925" fill-rule="evenodd" clip-rule="evenodd" d="M149.121 85.4101C149.323 85.3743 149.506 85.42 149.668 85.5468C152.007 87.7431 154.103 89.976 155.957 92.2461C153.587 90.0586 151.309 87.78 149.121 85.4101Z" fill="#274603"/>
<path opacity="0.388" fill-rule="evenodd" clip-rule="evenodd" d="M165.527 94.9805C165.436 95.2539 165.254 95.4363 164.98 95.5273C164.97 95.1839 165.107 94.9105 165.391 94.707C165.5 94.7694 165.545 94.8607 165.527 94.9805Z" fill="#274603"/>
<path fill-rule="evenodd" clip-rule="evenodd" d="M141.738 120.957C119.463 143.369 97.1319 165.746 74.7461 188.086C74.3134 188.033 73.9488 187.805 73.6524 187.402C73.455 187.288 73.3183 187.106 73.2422 186.855C73.0599 173.275 73.0599 159.694 73.2422 146.113C74.8734 143.093 77.1976 142.364 80.2149 143.926C83.335 147.457 86.6163 150.875 90.0586 154.18C90.221 154.307 90.4034 154.352 90.6055 154.316C103.501 141.467 116.443 128.661 129.434 115.898C131.803 114.987 134.173 114.987 136.543 115.898C138.412 117.449 140.144 119.135 141.738 120.957Z" fill="#274603"/>
<path fill-rule="evenodd" clip-rule="evenodd" d="M141.738 120.957C143.844 122.744 145.712 124.749 147.344 126.973C148.379 129.661 148.106 132.213 146.523 134.629C133.936 147.171 121.403 159.749 108.926 172.363C108.487 171.962 108.35 172.053 108.516 172.637C110.181 174.44 111.958 176.081 113.848 177.559C115.124 179.382 116.673 180.931 118.496 182.207C119.1 182.588 119.51 183.135 119.727 183.848C120.414 186.571 119.548 188.576 117.129 189.863C103.366 189.863 89.6028 189.863 75.8398 189.863C75.8398 189.772 75.8398 189.681 75.8398 189.59C75.5627 189.269 75.1981 189.087 74.7461 189.043C74.1112 188.687 73.7467 188.14 73.6523 187.402C73.9488 187.805 74.3134 188.033 74.7461 188.086C97.1319 165.746 119.463 143.369 141.738 120.957Z" fill="#274603"/>
<path opacity="0.565" fill-rule="evenodd" clip-rule="evenodd" d="M80.2148 143.926C83.7695 147.298 87.2332 150.762 90.6055 154.316C90.4034 154.352 90.221 154.307 90.0586 154.18C86.6163 150.875 83.335 147.457 80.2148 143.926Z" fill="#274603"/>
<path opacity="0.953" fill-rule="evenodd" clip-rule="evenodd" d="M108.926 172.363C110.566 174.095 112.207 175.827 113.848 177.559C111.958 176.081 110.181 174.44 108.516 172.637C108.35 172.053 108.487 171.962 108.926 172.363Z" fill="#274603"/>
<path opacity="0.957" fill-rule="evenodd" clip-rule="evenodd" d="M113.848 177.559C115.488 179.017 117.038 180.566 118.496 182.207C116.673 180.931 115.124 179.382 113.848 177.559Z" fill="#274603"/>
<path opacity="0.906" fill-rule="evenodd" clip-rule="evenodd" d="M74.7461 189.043C75.1981 189.087 75.5627 189.269 75.8398 189.59C75.3259 189.664 74.9613 189.482 74.7461 189.043Z" fill="#274603"/>
</g>
<defs>
<clipPath id="clip0_91_7142">
<rect width="140" height="140" fill="white" transform="translate(50 50)"/>
</clipPath>
</defs>
</svg>
